<svg xmlns="http://www.w3.org/2000/svg" xmlns:xlink="http://www.w3.org/1999/xlink" width="1140" height="650" viewBox="-14.256 -2.229 1140 650"><defs><symbol id="e" viewBox="-15 -15 30 30"><path fill="#AEAEAE" d="M0 15c8.284 0 15-6.716 15-15S8.284-15 0-15-15-8.284-15 0s6.716 15 15 15z"/><text transform="matrix(1 0 0 -1 -5.006 -5.4)" fill="#FFF" font-family="'ArialMT'" font-size="18">8</text></symbol><symbol id="a" viewBox="-15 -15 30 30"><path fill="#AEAEAE" d="M0 15c8.284 0 15-6.716 15-15S8.284-15 0-15-15-8.284-15 0s6.716 15 15 15z"/><text transform="matrix(1 0 0 -1 -5.006 -5.4)" fill="#FFF" font-family="'ArialMT'" font-size="18">3</text></symbol><symbol id="g" viewBox="-15 -15 30 30"><path fill="#AEAEAE" d="M0 15c8.284 0 15-6.716 15-15S8.284-15 0-15-15-8.284-15 0s6.716 15 15 15z"/><text transform="matrix(1 0 0 -1 -5.006 -5.4)" fill="#FFF" font-family="'ArialMT'" font-size="18">1</text></symbol><symbol id="c" viewBox="-15 -15 30 30"><path fill="#AEAEAE" d="M0 15c8.284 0 15-6.716 15-15S8.284-15 0-15-15-8.284-15 0s6.716 15 15 15z"/><text transform="matrix(1 0 0 -1 -5.006 -5.4)" fill="#FFF" font-family="'ArialMT'" font-size="18">5</text></symbol><symbol id="d" viewBox="-15 -15 30 30"><path fill="#AEAEAE" d="M0 15c8.284 0 15-6.716 15-15S8.284-15 0-15-15-8.284-15 0s6.716 15 15 15z"/><text transform="matrix(1 0 0 -1 -5.006 -5.4)" fill="#FFF" font-family="'ArialMT'" font-size="18">6</text></symbol><symbol id="f" viewBox="-15 -15 30 30"><path fill="#AEAEAE" d="M0 15c8.284 0 15-6.716 15-15S8.284-15 0-15-15-8.284-15 0s6.716 15 15 15z"/><text transform="matrix(1 0 0 -1 -5.006 -5.4)" fill="#FFF" font-family="'ArialMT'" font-size="18">7</text></symbol><symbol id="i" viewBox="-16 -16 32 32"><path fill="#F5F4F4" stroke="#000" stroke-width="2" d="M0 15c8.284 0 15-6.716 15-15S8.284-15 0-15-15-8.284-15 0s6.716 15 15 15z"/></symbol><symbol id="b" viewBox="-15 -15 30 30"><path fill="#AEAEAE" d="M0 15c8.285 0 15-6.716 15-15S8.285-15 0-15c-8.283 0-15 6.716-15 15s6.716 15 15 15z"/><text transform="matrix(1 0 0 -1 -5.006 -5.4)" fill="#FFF" font-family="'ArialMT'" font-size="18">4</text></symbol><symbol id="h" viewBox="-15 -15 30 30"><path fill="#AEAEAE" d="M0 15c8.284 0 15-6.716 15-15S8.284-15 0-15-15-8.284-15 0s6.716 15 15 15z"/><text transform="matrix(1 0 0 -1 -5.006 -5.4)" fill="#FFF" font-family="'ArialMT'" font-size="18">2</text></symbol></defs><path fill="#F5F4F4" stroke="#000" stroke-width="2" d="M4.943 625.106c17.231 11.487 46.292 20.708 79.188 20.708 32.891 0 54.827-2.438 77.971-14.617 23.148-12.185 51.17-13.401 92.593-15.839 41.423-2.437 131.578-12.185 149.854-12.185 18.273 0 58.474 4.879 74.313-47.514 15.844-52.39 2.438-127.921 2.438-164.47s1.405-100.823-21.928-146.2c-21.932-42.643-64.57-87.72-75.539-104.778-10.963-17.054-30.454-32.896-41.418-38.986-10.969-6.089-57.265-15.837-60.918-30.454-3.654-14.621-14.622-52.387-45.076-62.135-30.459-9.747-53.607-12.188-76.755 4.871-23.144 17.058-30.455 60.921-37.765 67.012-7.311 6.086-49.954 57.261-49.954 69.44 0 12.185-7.268 32.079-19.447 46.7-12.185 14.618-24.766 53.982-30.859 82.004 0 0-12.607 79.077-7.5 110.267 6.843 41.781 2.153 81.625-1.5 101.118-3.658 19.494-18.666 127.748-7.698 135.058z"/><path fill="none" stroke="#E42522" stroke-width="3" stroke-dasharray="20,5" d="M117.637 641.167c6.519-86.955 19.603-188.83 26.13-227.965 6.519-39.132 0-91.307-6.527-141.306-6.519-50-13.038-69.564-2.168-123.914 10.869-54.354 23.915-78.265 32.607-123.917"/><path fill="none" stroke="#E42322" stroke-width="3" stroke-dasharray="20,5" d="M366.054 603.972c0-73.374-2.717-123.37-4.895-147.285-2.173-23.92-41.3-34.783-49.998-91.311-8.697-56.522 4.349-200 4.349-234.785M365.506 450.163c13.046-58.699 26.087-156.524 26.087-191.312 0-34.779-15.215-80.438-15.215-104.344M59.66 515.923c2.816-45.576 4.222-61.586 0-107.062-4.223-45.477-15.355-105.977-16.984-131.524M138.04 608.531c118-7.876 143.449-35.39 226.933-38.801"/><path fill="none" stroke="#E42322" stroke-width="3" stroke-dasharray="20,5" d="M264.418 615.915c-.68-106.162 2.174-173.934 8.147-215.754 5.975-41.824 21.574-58.351 26.093-70.068M91.637 522.119c-2-36.554 3.982-46.201 4.299-92.617.318-46.417-2.742-125.229-5.434-157.602-2.693-32.372-3.88-126.094-3.88-126.094M437.25 594.558c1.007-66.509 1.873-162.641-4.894-239.13-6.767-76.492-17.821-142.49-29.887-172.121"/><path d="M76.571 304.875c34.499 5.052 72.105 25.636 104.707 3.176.608-.419.93-2.309-.027-1.649-32.309 22.26-69.815 1.648-103.991-3.356-.768-.114-1.582 1.698-.689 1.829z"/><path fill="none" stroke="#000" stroke-width="2" d="M55.781 192.438c26.593 8.461 50.254 13.173 61.897 12.461M279.557 63.608c-40.516 37.956-73.183 49.309-81.849 94.299-8.666 44.99-10.221 132.737-16.444 164.863s-10.283 90.793-13.586 112.126c-3.303 21.333-26.695 190.639-25 199.319M6.455 533.146c33.185-1.999 79.368-3.499 80.275 10 .907 13.499 8.412 95.359 2.907 102.643"/><use xlink:href="#a" width="30" height="30" x="-15" y="-15" transform="matrix(1 0 0 -1 117.637 623.532)" overflow="visible"/><use xlink:href="#b" width="30" height="30" x="-15" y="-15" transform="matrix(1 0 0 -1 264.42 556.12)" overflow="visible"/><use xlink:href="#c" width="30" height="30" x="-15" y="-15" transform="matrix(1 0 0 -1 346.813 589.556)" overflow="visible"/><use xlink:href="#d" width="30" height="30" x="-15" y="-15" transform="matrix(1 0 0 -1 389.122 315.156)" overflow="visible"/><use xlink:href="#d" width="30" height="30" x="-15" y="-15" transform="matrix(1 0 0 -1 384.813 585.656)" overflow="visible"/><use xlink:href="#e" width="30" height="30" x="-15" y="-15" transform="matrix(1 0 0 -1 437.12 580.644)" overflow="visible"/><use xlink:href="#f" width="30" height="30" x="-15" y="-15" transform="matrix(1 0 0 -1 192.632 600.142)" overflow="visible"/><use xlink:href="#g" width="30" height="30" x="-15" y="-15" transform="matrix(1 0 0 -1 55.781 505.05)" overflow="visible"/><use xlink:href="#h" width="30" height="30" x="-15" y="-15" transform="matrix(1 0 0 -1 89.637 518.145)" overflow="visible"/><use xlink:href="#i" width="32" height="32" x="-16" y="-16" transform="matrix(.8 0 0 -.8 378.55 170.708)" overflow="visible"/><use xlink:href="#i" width="32" height="32" x="-16" y="-16" transform="matrix(.8 0 0 -.8 313.442 136.534)" overflow="visible"/><use xlink:href="#i" width="32" height="32" x="-16" y="-16" transform="matrix(.8 0 0 -.8 164.418 33.85)" overflow="visible"/><use xlink:href="#i" width="32" height="32" x="-16" y="-16" transform="matrix(.8 0 0 -.8 88.637 154.506)" overflow="visible"/><use xlink:href="#i" width="32" height="32" x="-16" y="-16" transform="matrix(.8 0 0 -.8 43.675 285.465)" overflow="visible"/><use xlink:href="#c" width="30" height="30" x="-15" y="-15" transform="matrix(1 0 0 -1 326.242 403.933)" overflow="visible"/></svg>