<?xml version="1.0" encoding="utf-8"?>
<!-- Generator: Adobe Illustrator 14.0.0, SVG Export Plug-In  -->
<!DOCTYPE svg PUBLIC "-//W3C//DTD SVG 1.1//EN" "http://www.w3.org/Graphics/SVG/1.1/DTD/svg11.dtd" [
	<!ENTITY ns_flows "http://ns.adobe.com/Flows/1.0/">
]>
<svg version="1.1"
	 xmlns="http://www.w3.org/2000/svg" xmlns:xlink="http://www.w3.org/1999/xlink" xmlns:a="http://ns.adobe.com/AdobeSVGViewerExtensions/3.0/"
	 x="0px" y="0px" width="1140px" height="650px" viewBox="-177.658 -6.789 1140 650"
	 enable-background="new -177.658 -6.789 1140 650" xml:space="preserve">
<defs>
	<symbol  id="Deleted_Symbol" viewBox="-6.244 -9.911 12.497 19.824">
		<g>
			<path fill="#89BA17" d="M3.417-5.863c0,0,0.772,4.522-0.586,9.127c0,0,0.218-9.024-0.485-11.835L3.417-5.863z"/>
			<g>
				<path fill="none" d="M3.417-5.863c0,0,0.772,4.522-0.586,9.127c0,0,0.218-9.024-0.485-11.835L3.417-5.863z"/>
				<path d="M3.916-5.91c0.492,3.062,0.205,6.282-0.592,9.261c-0.135,0.506-1.004,0.562-0.99-0.04
					C2.423-0.551,2.691-4.734,1.849-8.524c-0.127-0.57,0.767-0.728,0.967-0.221C3.173-7.843,3.53-6.94,3.887-6.037
					c0.238,0.602-0.702,0.945-0.938,0.348C2.591-6.593,2.234-7.495,1.877-8.397C2.2-8.472,2.522-8.545,2.845-8.618
					C3.688-4.829,3.419-0.645,3.33,3.217C3,3.203,2.669,3.19,2.339,3.177c0.777-2.909,1.06-6.005,0.58-8.993
					C2.817-6.454,3.813-6.543,3.916-5.91z"/>
			</g>
		</g>
		<g>
			<path fill="#1FA22E" d="M-1.558-7.9l1.14,2.944c0,0-0.205,12.883,0.263,14.374C-0.154,9.418-1.909-1.628-1.558-7.9z"/>
			<g>
				<path fill="none" d="M-1.558-7.9l1.14,2.944c0,0-0.205,12.883,0.263,14.374C-0.154,9.418-1.909-1.628-1.558-7.9z"/>
				<path d="M-1.088-8.073c0.335,0.867,1.183,2.166,1.168,3.095c-0.018,1.124-0.027,2.246-0.035,3.37
					C0.021,1.8-0.53,5.913,0.315,9.245C-0.008,9.319-0.33,9.392-0.652,9.466C-1.556,3.734-2.313-2.179-2.05-7.986
					c0.028-0.643,1.013-0.461,0.984,0.174C-1.324-2.102-0.545,3.736,0.344,9.372c0.087,0.555-0.828,0.771-0.967,0.221
					C-1.387,6.58-0.966,2.997-0.958-0.08c0.004-1.482,0.018-2.966,0.038-4.448c0.014-1.01-0.724-2.211-1.106-3.197
					C-2.26-8.329-1.321-8.673-1.088-8.073z"/>
			</g>
		</g>
		<g>
			<path fill="#1FA22E" d="M-1.977-5.026c0,0-0.613,5.734-3.773,8.544c0,0,3.277-8.309,2.809-11.002L-1.977-5.026z"/>
			<g>
				<path fill="none" d="M-1.977-5.026c0,0-0.613,5.734-3.773,8.544c0,0,3.277-8.309,2.809-11.002L-1.977-5.026z"/>
				<path d="M-1.484-4.94C-1.846-1.774-3.04,1.604-5.368,3.841c-0.407,0.392-1.047,0.008-0.833-0.538
					c1.238-3.156,3.183-7.288,2.763-10.739c-0.07-0.574,0.763-0.74,0.967-0.221C-2.15-6.838-1.829-6.019-1.507-5.2
					c0.236,0.603-0.703,0.946-0.938,0.348C-2.767-5.672-3.088-6.491-3.41-7.31c0.323-0.074,0.645-0.148,0.967-0.221
					c0.441,3.626-1.553,7.943-2.855,11.263c-0.278-0.18-0.556-0.359-0.833-0.538c2.214-2.128,3.317-5.298,3.662-8.308
					C-2.396-5.755-1.411-5.577-1.484-4.94z"/>
			</g>
		</g>
		<g>
			<path fill="#1FA22E" d="M4.048-7.437c0,0,0.142,6.804,1.701,8.291c0,0-1.247-8.403-0.779-10.275L4.048-7.437z"/>
			<g>
				<path fill="none" d="M4.048-7.437c0,0,0.142,6.804,1.701,8.291c0,0-1.247-8.403-0.779-10.275L4.048-7.437z"/>
				<path d="M4.546-7.484c0.057,2.388-0.054,6.186,1.612,8.052C5.855,0.679,5.553,0.79,5.25,0.9
					C4.771-2.344,3.824-6.251,4.477-9.508c0.314,0.101,0.629,0.2,0.944,0.302C5.114-8.545,4.807-7.884,4.5-7.222
					C4.228-6.638,3.324-7.065,3.596-7.652c0.307-0.66,0.614-1.321,0.921-1.983c0.237-0.51,1.056-0.256,0.944,0.302
					C4.831-6.185,5.783-2.338,6.247,0.808C6.327,1.355,5.64,1.479,5.339,1.142C3.536-0.878,3.61-4.843,3.55-7.39
					C3.535-8.031,4.53-8.128,4.546-7.484z"/>
			</g>
		</g>
		<g>
			<path fill="#89BA17" d="M0.292-3.751c0,0,1.061,9.043,1.719,10.041c0,0-0.962-11.533-0.443-13.585L0.292-3.751z"/>
			<g>
				<path fill="none" d="M0.292-3.751c0,0,1.061,9.043,1.719,10.041c0,0-0.962-11.533-0.443-13.585L0.292-3.751z"/>
				<path d="M0.79-3.799c0.163,1.382,0.346,2.761,0.54,4.139C1.571,2.064,1.596,4.436,2.42,6.002
					C2.117,6.114,1.815,6.226,1.512,6.337C1.339,4.241,1.199,2.144,1.082,0.045C0.948-2.339,0.588-5.017,1.075-7.383
					C1.39-7.281,1.705-7.181,2.019-7.08C1.594-5.9,1.168-4.718,0.743-3.536C0.525-2.932-0.377-3.363-0.16-3.967
					C0.265-5.146,0.69-6.328,1.116-7.51C1.309-8.046,2.172-7.752,2.06-7.208C1.557-4.769,1.97-1.976,2.107,0.488
					c0.107,1.92,0.242,3.839,0.401,5.755c0.038,0.46-0.663,0.801-0.908,0.334C0.817,5.085,0.73,3.088,0.482,1.455
					C0.221-0.26-0.003-1.981-0.207-3.704C-0.282-4.346,0.714-4.437,0.79-3.799z"/>
			</g>
		</g>
	</symbol>
	<symbol  id="Deleted_Symbol_1" viewBox="-4.394 -3.638 8.787 7.274">
		
			<path fill="none" stroke="#000000" stroke-width="1.0063" stroke-linecap="round" stroke-linejoin="round" stroke-miterlimit="1" d="
			M-3.891-3.135l6.266,6.268c0,0,2.598-2.398,0.99-4.007C1.845-2.395-0.688,0.068-0.688,0.068"/>
	</symbol>
	<symbol  id="Deleted_Symbol_2" viewBox="-3.115 -2.608 6.231 5.214">
		
			<use xlink:href="#Deleted_Symbol_3"  width="5.9" height="4.884" x="-2.95" y="-2.442" transform="matrix(-1 0 0 1 0 0)" overflow="visible"/>
	</symbol>
	<symbol  id="Deleted_Symbol_3" viewBox="-2.95 -2.442 5.9 4.884">
		
			<use xlink:href="#Deleted_Symbol_1"  width="8.787" height="7.274" x="-4.394" y="-3.638" transform="matrix(0.6714 0 0 0.6714 0 0)" overflow="visible"/>
	</symbol>
	<symbol  id="Deleted_Symbol_4" viewBox="-3.374 -2.793 6.748 5.585">
		
			<use xlink:href="#Neues_Symbol_12"  width="7.126" height="5.964" x="-3.563" y="-2.983" transform="matrix(-1 0 0 1 0 0)" overflow="visible"/>
	</symbol>
	<symbol  id="Dreizehn" viewBox="-15 -15 30 30">
		<path fill="#AEAEAE" d="M0,15c8.284,0,15-6.716,15-15S8.284-15,0-15S-15-8.284-15,0S-8.284,15,0,15z"/>
		<text transform="matrix(1 0 0 -1 -10.0107 -5.4004)" fill="#FFFFFF" font-family="'ArialMT'" font-size="18">13</text>
	</symbol>
	<symbol  id="Elf" viewBox="-15 -15 30 30">
		<path fill="#AEAEAE" d="M0,15c8.284,0,15-6.716,15-15S8.284-15,0-15S-15-8.284-15,0S-8.284,15,0,15z"/>
		<text transform="matrix(1 0 0 -1 -9.3428 -5.4004)" enable-background="new    "><tspan x="0" y="0" fill="#FFFFFF" font-family="'ArialMT'" font-size="18" letter-spacing="-1">1</tspan><tspan x="8.675" y="0" fill="#FFFFFF" font-family="'ArialMT'" font-size="18">1</tspan></text>
	</symbol>
	<symbol  id="Neues_Symbol_11" viewBox="-2.493 -4.599 4.987 9.195">
		<path fill="none" stroke="#000000" stroke-width="0.75" d="M-1.379,3.657c0.843-2.492,2.815-7.468,1.035-7.876
			c-5.038,0.624,2.202,8.254,2.681,8.474"/>
	</symbol>
	<symbol  id="Neues_Symbol_12" viewBox="-3.563 -2.983 7.126 5.964">
		
			<use xlink:href="#Deleted_Symbol_2"  width="6.231" height="5.214" x="-3.115" y="-2.608" transform="matrix(1.1437 0 0 1.1437 0 0)" overflow="visible"/>
	</symbol>
	<symbol  id="Neues_Symbol_2" viewBox="-6.149 -13.406 12.299 26.811">
		<line fill="none" stroke="#000000" stroke-width="2" stroke-linecap="round" x1="0" y1="-12.406" x2="0" y2="12.404"/>
		<line fill="none" stroke="#000000" stroke-width="2" stroke-linecap="round" x1="-5.149" y1="4.445" x2="5.149" y2="4.445"/>
	</symbol>
	<symbol  id="Neues_Symbol_7" viewBox="-3.374 -2.793 6.748 5.585">
		
			<use xlink:href="#Neues_Symbol_12"  width="7.126" height="5.964" x="-3.563" y="-2.983" transform="matrix(-1 0 0 1 0 0)" overflow="visible"/>
	</symbol>
	<symbol  id="Neun" viewBox="-15 -15 30 30">
		<path fill="#AEAEAE" d="M0,15c8.284,0,15-6.716,15-15S8.284-15,0-15S-15-8.284-15,0S-8.284,15,0,15z"/>
		<text transform="matrix(1 0 0 -1 -5.0059 -5.4004)" fill="#FFFFFF" font-family="'ArialMT'" font-size="18">9</text>
	</symbol>
	<symbol  id="Umlenkung" viewBox="-16 -16 32 32">
		<path fill="#FFFFFF" stroke="#000000" stroke-width="2" d="M0,15c8.284,0,15-6.716,15-15S8.284-15,0-15S-15-8.284-15,0
			S-8.284,15,0,15z"/>
		<text transform="matrix(1 0 0 -1 -5.0059 -5.3994)" fill="#FFFFFF" font-family="'ArialMT'" font-size="18">8</text>
	</symbol>
	<symbol  id="Zehn" viewBox="-15 -15 30 30">
		<path fill="#AEAEAE" d="M0,15c8.284,0,15-6.716,15-15S8.284-15,0-15S-15-8.284-15,0S-8.284,15,0,15z"/>
		<text transform="matrix(1 0 0 -1 -10.0107 -5.4004)" fill="#FFFFFF" font-family="'ArialMT'" font-size="18">10</text>
	</symbol>
	<symbol  id="Zwölf" viewBox="-15 -15 30 30">
		<path fill="#AEAEAE" d="M0,15c8.284,0,15-6.716,15-15S8.284-15,0-15S-15-8.284-15,0S-8.284,15,0,15z"/>
		<text transform="matrix(1 0 0 -1 -10.0107 -5.4004)" fill="#FFFFFF" font-family="'ArialMT'" font-size="18">12</text>
	</symbol>
</defs>
<path fill="#F6F4F4" stroke="#000000" stroke-width="3" d="M15.579,566.07c40.712,27.925,64,36.937,120,40.937s168,0,196,0
	s104-7.158,132-19.579s70-51.081,74-77.751s6-116.26,14-191.465s20-189.205,12-219.205s-46-82-80-88s-94-18-122,0s-50,24-94,26
	s-80-14-116,4s-94,78-106,128s-44,128-44,198S-0.404,555.107,15.579,566.07z"/>
<path fill="#F6F4F4" stroke="#000000" stroke-width="3" d="M441.867,594.213c5.712-75.206,7.712-127.206,23.712-217.206
	s61.72-283.995,54-318"/>
<path fill="#F6F4F4" stroke="#000000" stroke-width="3" d="M276.776,477.677c16-101.206,36.783-169.663,58.783-226.511
	c22-56.848,34.02-104.159,56.783-158.159"/>
<path fill="#F6F4F4" stroke="#000000" stroke-width="3" d="M347.579,409.673c56,1.334,83.432,13.566,114.716-13.55"/>
<path fill="#F6F4F4" stroke="#000000" stroke-width="3" d="M93.579,421.324c36,7.683,82,17.015,110,4.349"/>
<path fill="none" stroke="#E42322" stroke-width="3" stroke-dasharray="20,5" d="M481.158,566.07
	c6.421-69.063,0.421-127.063,10.421-193.063s17.742-112,28.871-174s-14.422-98-19.646-130s1.39-46,1.39-46"/>
<path fill="none" stroke="#E42322" stroke-width="3" stroke-dasharray="20,5" d="M481.158,421.324
	c-27.985-18.312-45.579-26.317-51.579-86.317s-10-96,0-170s12.288-84,12.288-84"/>
<path fill="none" stroke="#E42322" stroke-width="3" stroke-dasharray="20,5" d="M271.579,608.069
	c16-91.206,24.764-122.83,51.382-211.946s30.431-125.646,46.618-175.116s41.818-106,53.909-128"/>
<path fill="none" stroke="#E42322" stroke-width="3" stroke-dasharray="20,5" d="M148.579,594.213c3-57.206,3-142.94,17-205.073
	s50-248.133,54-280.133"/>
<path fill="none" stroke="#E42322" stroke-width="3" stroke-dasharray="20,5" d="M47.579,566.07c6-61.063,18-170.509,26-233.786
	s30-159.277,37-191.277"/>
<use xlink:href="#Neun"  width="30" height="30" x="-15" y="-15" transform="matrix(1 0 0 -1 47.5786 562.0068)" overflow="visible"/>
<use xlink:href="#Zehn"  width="30" height="30" x="-15" y="-15" transform="matrix(1 0 0 -1 148.5786 590.0068)" overflow="visible"/>
<use xlink:href="#Elf"  width="30" height="30" x="-15" y="-15" transform="matrix(1 0 0 -1 274.7764 593.0068)" overflow="visible"/>
<use xlink:href="#Zwölf"  width="30" height="30" x="-15" y="-15" transform="matrix(1 0 0 -1 423.4878 318.2119)" overflow="visible"/>
<use xlink:href="#Dreizehn"  width="30" height="30" x="-15" y="-15" transform="matrix(1 0 0 -1 513.1577 262.0068)" overflow="visible"/>
<use xlink:href="#Zwölf"  width="30" height="30" x="-15" y="-15" transform="matrix(1 0 0 -1 463.2944 565.0068)" overflow="visible"/>
<use xlink:href="#Dreizehn"  width="30" height="30" x="-15" y="-15" transform="matrix(1 0 0 -1 497.1577 540.0703)" overflow="visible"/>
<use xlink:href="#Umlenkung"  width="32" height="32" x="-16" y="-16" transform="matrix(1 0 0 -1 110.5786 125.0068)" overflow="visible"/>
<use xlink:href="#Umlenkung"  width="32" height="32" x="-16" y="-16" transform="matrix(1 0 0 -1 219.5786 93.0068)" overflow="visible"/>
<use xlink:href="#Umlenkung"  width="32" height="32" x="-16" y="-16" transform="matrix(1 0 0 -1 435.978 83.6729)" overflow="visible"/>
<use xlink:href="#Umlenkung"  width="32" height="32" x="-16" y="-16" transform="matrix(1 0 0 -1 497.1577 39.0068)" overflow="visible"/>
</svg>
