<svg xmlns="http://www.w3.org/2000/svg" xmlns:xlink="http://www.w3.org/1999/xlink" width="1140" height="650" viewBox="95.739 528.41 1140 650"><defs><symbol id="g" viewBox="-15 -15 30 30"><path fill="#AEAEAE" d="M0 15c8.284 0 15-6.716 15-15S8.284-15 0-15-15-8.284-15 0s6.716 15 15 15z"/><text transform="matrix(1 0 0 -1 -5.006 -5.4)" fill="#FFF" font-family="'ArialMT'" font-size="18">8</text></symbol><symbol id="b" viewBox="-4.394 -3.638 8.787 7.274"><path fill="none" stroke="#000" stroke-width="1.006" stroke-linecap="round" stroke-linejoin="round" stroke-miterlimit="1" d="M-3.891-3.135l6.266 6.268s2.598-2.398.99-4.007C1.845-2.395-.688.068-.688.068"/></symbol><symbol id="d" viewBox="-3.115 -2.608 6.231 5.214"><use xlink:href="#a" width="5.9" height="4.884" x="-2.95" y="-2.442" transform="scale(-1 1)" overflow="visible"/></symbol><symbol id="a" viewBox="-2.95 -2.442 5.9 4.884"><use xlink:href="#b" width="8.787" height="7.274" x="-4.394" y="-3.638" transform="scale(.6714)" overflow="visible"/></symbol><symbol id="k" viewBox="-15 -15 30 30"><path fill="#AEAEAE" d="M0 15c8.284 0 15-6.716 15-15S8.284-15 0-15-15-8.284-15 0s6.716 15 15 15z"/><text transform="matrix(1 0 0 -1 -5.006 -5.4)" fill="#FFF" font-family="'ArialMT'" font-size="18">3</text></symbol><symbol id="q" viewBox="-15 -15 30 30"><path fill="#AEAEAE" d="M0 15c8.284 0 15-6.716 15-15S8.284-15 0-15-15-8.284-15 0s6.716 15 15 15z"/><text transform="matrix(1 0 0 -1 -10.01 -5.4)" fill="#FFF" font-family="'ArialMT'" font-size="18">13</text></symbol><symbol id="l" viewBox="-15 -15 30 30"><path fill="#AEAEAE" d="M0 15c8.284 0 15-6.716 15-15S8.284-15 0-15-15-8.284-15 0s6.716 15 15 15z"/><text transform="matrix(1 0 0 -1 -5.006 -5.4)" fill="#FFF" font-family="'ArialMT'" font-size="18">1</text></symbol><symbol id="o" viewBox="-15 -15 30 30"><path fill="#AEAEAE" d="M0 15c8.284 0 15-6.716 15-15S8.284-15 0-15-15-8.284-15 0s6.716 15 15 15z"/><text transform="matrix(1 0 0 -1 -9.343 -5.4)"><tspan x="0" y="0" fill="#FFF" font-family="'ArialMT'" font-size="18" letter-spacing="-1">1</tspan><tspan x="8.675" y="0" fill="#FFF" font-family="'ArialMT'" font-size="18">1</tspan></text></symbol><symbol id="f" viewBox="-15 -15 30 30"><path fill="#AEAEAE" d="M0 15c8.284 0 15-6.716 15-15S8.284-15 0-15-15-8.284-15 0s6.716 15 15 15z"/><text transform="matrix(1 0 0 -1 -5.006 -5.4)" fill="#FFF" font-family="'ArialMT'" font-size="18">5</text></symbol><symbol id="c" viewBox="-3.563 -2.983 7.126 5.964"><use xlink:href="#d" width="6.231" height="5.214" x="-3.115" y="-2.608" transform="scale(1.1437)" overflow="visible"/></symbol><symbol id="m" viewBox="-15 -15 30 30"><path fill="#AEAEAE" d="M0 15c8.284 0 15-6.716 15-15S8.284-15 0-15-15-8.284-15 0s6.716 15 15 15z"/><text transform="matrix(1 0 0 -1 -5.006 -5.4)" fill="#FFF" font-family="'ArialMT'" font-size="18">9</text></symbol><symbol id="i" viewBox="-15 -15 30 30"><path fill="#AEAEAE" d="M0 15c8.284 0 15-6.716 15-15S8.284-15 0-15-15-8.284-15 0s6.716 15 15 15z"/><text transform="matrix(1 0 0 -1 -5.006 -5.4)" fill="#FFF" font-family="'ArialMT'" font-size="18">6</text></symbol><symbol id="h" viewBox="-15 -15 30 30"><path fill="#AEAEAE" d="M0 15c8.284 0 15-6.716 15-15S8.284-15 0-15-15-8.284-15 0s6.716 15 15 15z"/><text transform="matrix(1 0 0 -1 -5.006 -5.4)" fill="#FFF" font-family="'ArialMT'" font-size="18">7</text></symbol><symbol id="s" viewBox="-16 -16 32 32"><path fill="#F5F4F4" stroke="#000" stroke-width="2" d="M0 15c8.284 0 15-6.716 15-15S8.284-15 0-15-15-8.284-15 0s6.716 15 15 15z"/></symbol><symbol id="e" viewBox="-15 -15 30 30"><path fill="#AEAEAE" d="M0 15c8.285 0 15-6.716 15-15S8.285-15 0-15c-8.283 0-15 6.716-15 15s6.716 15 15 15z"/><text transform="matrix(1 0 0 -1 -5.006 -5.4)" fill="#FFF" font-family="'ArialMT'" font-size="18">4</text></symbol><symbol id="r" viewBox="-15 -15 30 30"><path fill="#AEAEAE" d="M0 15c8.284 0 15-6.716 15-15S8.284-15 0-15-15-8.284-15 0s6.716 15 15 15z"/><text transform="matrix(1 0 0 -1 -10.01 -5.4)" fill="#FFF" font-family="'ArialMT'" font-size="18">14</text></symbol><symbol id="n" viewBox="-15 -15 30 30"><path fill="#AEAEAE" d="M0 15c8.284 0 15-6.716 15-15S8.284-15 0-15-15-8.284-15 0s6.716 15 15 15z"/><text transform="matrix(1 0 0 -1 -10.01 -5.4)" fill="#FFF" font-family="'ArialMT'" font-size="18">10</text></symbol><symbol id="j" viewBox="-15 -15 30 30"><path fill="#AEAEAE" d="M0 15c8.284 0 15-6.716 15-15S8.284-15 0-15-15-8.284-15 0s6.716 15 15 15z"/><text transform="matrix(1 0 0 -1 -5.006 -5.4)" fill="#FFF" font-family="'ArialMT'" font-size="18">2</text></symbol><symbol id="p" viewBox="-15 -15 30 30"><path fill="#AEAEAE" d="M0 15c8.284 0 15-6.716 15-15S8.284-15 0-15-15-8.284-15 0s6.716 15 15 15z"/><text transform="matrix(1 0 0 -1 -10.01 -5.4)" fill="#FFF" font-family="'ArialMT'" font-size="18">12</text></symbol></defs><path fill="#F6F4F4" stroke="#000" stroke-width="3" d="M176.976 1098.205c-16.66-63.862-22.817-217.071-10.817-241.071s68.817-52.929 88.817-68.929 36-34 58-62 56-48 74-68 90-56 108-60 84-6 106 0 72-2 82-8 44-16 72-34 76 18 116 50 58 44 92 56 150 60 162 92 34 202 34 244 0 94-38 124-234 44-290 40-322-10-374-10-268-8-280-54z"/><path fill="#F6F4F4" stroke="#000" stroke-width="3" d="M214.976 1046.205c32 0 93.925 29.996 129.925 15.996s55.53-20.927 55.53-20.927M642.976 780.205c64-30 90-68 124-78s72-6 106 0M1120.976 970.205c-22 0-116.184-1.284-156 30-28 22-40 48-66 80s-44 66-56 74"/><path fill="none" stroke="#E42322" stroke-width="3" stroke-dasharray="20,5" d="M232.976 1116.205c-2-58-16.859-203.312-18-252M321.976 1132.205c1-50-11-152-11-180s-16-136-16-158M379.355 1138.282c-3-35.998.225-107.164-7.274-148.077s-31.499-61.912-38.998-84.411M442.578 1138.282c-1.5-37.498-4.5-194.99-7.5-248.987s-12-120.78-12-151.135v-73.854M523.574 1138.282c0-44.997-15-223.489-15-250.487s-11.999-251.987-11.999-265.486M561.072 1132.205c0-49.42-3-124.416 0-187.413s0-283.486 0-311.984M642.976 1138.282c-.908-65.996-9.907-193.491-9.907-236.988V632.808M699.066 1145.785c0-89.995-7.5-292.485-7.5-323.983s-1.426-141.704 0-188.994M747.063 1138.282c0-55.494 4.499-161.989 0-224.985-4.499-62.997-11.999-214.489-11.999-232.488v-85.496M793.562 1138.282V864.205c0-58.903 2.512-228.421 0-268.892M835.56 1138.282c2.999-98.989 16.499-254.981 14.999-322.479-1.5-67.497-10.383-206.989-7.441-211.489M886.557 1065.924c1.5-94.128 8.999-341.615 8.999-380.613M981.976 931.758c-.924-55.957-21.923-168.452-21.923-204.45M1024.55 944.798c10.499-86.996 10.499-154.493 10.499-193.491"/><use xlink:href="#e" width="30" height="30" x="-15" y="-15" transform="matrix(1 0 0 -1 442.578 1135.283)" overflow="visible"/><use xlink:href="#f" width="30" height="30" x="-15" y="-15" transform="matrix(1 0 0 -1 523.574 1132.205)" overflow="visible"/><use xlink:href="#g" width="30" height="30" x="-15" y="-15" transform="matrix(1 0 0 -1 699.066 1138.282)" overflow="visible"/><use xlink:href="#h" width="30" height="30" x="-15" y="-15" transform="matrix(1 0 0 -1 642.976 1132.205)" overflow="visible"/><use xlink:href="#i" width="30" height="30" x="-15" y="-15" transform="matrix(1 0 0 -1 562.405 1128.282)" overflow="visible"/><use xlink:href="#j" width="30" height="30" x="-15" y="-15" transform="matrix(1 0 0 -1 322.035 1124.205)" overflow="visible"/><use xlink:href="#k" width="30" height="30" x="-15" y="-15" transform="matrix(1 0 0 -1 379.356 1128.282)" overflow="visible"/><use xlink:href="#l" width="30" height="30" x="-15" y="-15" transform="matrix(1 0 0 -1 236.089 1112.29)" overflow="visible"/><use xlink:href="#m" width="30" height="30" x="-15" y="-15" transform="matrix(1 0 0 -1 750.063 1133.787)" overflow="visible"/><use xlink:href="#n" width="30" height="30" x="-15" y="-15" transform="matrix(1 0 0 -1 796.56 1133.787)" overflow="visible"/><use xlink:href="#o" width="30" height="30" x="-15" y="-15" transform="matrix(1 0 0 -1 835.559 1138.287)" overflow="visible"/><use xlink:href="#p" width="30" height="30" x="-15" y="-15" transform="matrix(1 0 0 -1 889.556 1061.791)" overflow="visible"/><use xlink:href="#q" width="30" height="30" x="-15" y="-15" transform="matrix(1 0 0 -1 984.05 947.797)" overflow="visible"/><use xlink:href="#r" width="30" height="30" x="-15" y="-15" transform="matrix(1 0 0 -1 1030.549 941.797)" overflow="visible"/><use xlink:href="#s" width="32" height="32" x="-16" y="-16" transform="matrix(1 0 0 -1 1036.549 754.307)" overflow="visible"/><use xlink:href="#s" width="32" height="32" x="-16" y="-16" transform="matrix(1 0 0 -1 960.053 727.308)" overflow="visible"/><use xlink:href="#s" width="32" height="32" x="-16" y="-16" transform="matrix(1 0 0 -1 895.556 680.306)" overflow="visible"/><use xlink:href="#s" width="32" height="32" x="-16" y="-16" transform="matrix(1 0 0 -1 842.976 612.314)" overflow="visible"/><use xlink:href="#s" width="32" height="32" x="-16" y="-16" transform="matrix(1 0 0 -1 794.678 588.314)" overflow="visible"/><use xlink:href="#s" width="32" height="32" x="-16" y="-16" transform="matrix(1 0 0 -1 735.064 604.314)" overflow="visible"/><use xlink:href="#s" width="32" height="32" x="-16" y="-16" transform="matrix(1 0 0 -1 690.933 632.808)" overflow="visible"/><use xlink:href="#s" width="32" height="32" x="-16" y="-16" transform="matrix(1 0 0 -1 633.068 632.808)" overflow="visible"/><use xlink:href="#s" width="32" height="32" x="-16" y="-16" transform="matrix(1 0 0 -1 559.739 632.808)" overflow="visible"/><use xlink:href="#s" width="32" height="32" x="-16" y="-16" transform="matrix(1 0 0 -1 496.575 628.314)" overflow="visible"/><use xlink:href="#s" width="32" height="32" x="-16" y="-16" transform="matrix(1 0 0 -1 423.079 669.31)" overflow="visible"/><use xlink:href="#s" width="32" height="32" x="-16" y="-16" transform="matrix(1 0 0 -1 294.976 795.307)" overflow="visible"/><use xlink:href="#s" width="32" height="32" x="-16" y="-16" transform="matrix(1 0 0 -1 214.976 866.799)" overflow="visible"/></svg>