<svg xmlns="http://www.w3.org/2000/svg" xmlns:xlink="http://www.w3.org/1999/xlink" width="1140" height="650" viewBox="-11.481 -64.772 1140 650"><defs><symbol id="m" viewBox="-15 -15 30 30"><path fill="#AEAEAE" d="M0 15c8.284 0 15-6.716 15-15S8.284-15 0-15-15-8.284-15 0s6.716 15 15 15z"/><text transform="matrix(1 0 0 -1 -5.006 -5.4)" fill="#FFF" font-family="'ArialMT'" font-size="18">8</text></symbol><symbol id="b" viewBox="-4.394 -3.638 8.787 7.274"><path fill="none" stroke="#000" stroke-width="1.006" stroke-linecap="round" stroke-linejoin="round" stroke-miterlimit="1" d="M-3.891-3.135l6.266 6.268s2.598-2.398.99-4.007C1.845-2.395-.688.068-.688.068"/></symbol><symbol id="d" viewBox="-3.115 -2.608 6.231 5.214"><use xlink:href="#a" width="5.9" height="4.884" x="-2.95" y="-2.442" transform="scale(-1 1)" overflow="visible"/></symbol><symbol id="a" viewBox="-2.95 -2.442 5.9 4.884"><use xlink:href="#b" width="8.787" height="7.274" x="-4.394" y="-3.638" transform="scale(.6714)" overflow="visible"/></symbol><symbol id="h" viewBox="-15 -15 30 30"><path fill="#AEAEAE" d="M0 15c8.284 0 15-6.716 15-15S8.284-15 0-15-15-8.284-15 0s6.716 15 15 15z"/><text transform="matrix(1 0 0 -1 -5.006 -5.4)" fill="#FFF" font-family="'ArialMT'" font-size="18">3</text></symbol><symbol id="f" viewBox="-15 -15 30 30"><path fill="#AEAEAE" d="M0 15c8.284 0 15-6.716 15-15S8.284-15 0-15-15-8.284-15 0s6.716 15 15 15z"/><text transform="matrix(1 0 0 -1 -5.006 -5.4)" fill="#FFF" font-family="'ArialMT'" font-size="18">1</text></symbol><symbol id="j" viewBox="-15 -15 30 30"><path fill="#AEAEAE" d="M0 15c8.284 0 15-6.716 15-15S8.284-15 0-15-15-8.284-15 0s6.716 15 15 15z"/><text transform="matrix(1 0 0 -1 -5.006 -5.4)" fill="#FFF" font-family="'ArialMT'" font-size="18">5</text></symbol><symbol id="c" viewBox="-3.563 -2.983 7.126 5.964"><use xlink:href="#d" width="6.231" height="5.214" x="-3.115" y="-2.608" transform="scale(1.1437)" overflow="visible"/></symbol><symbol id="l" viewBox="-15 -15 30 30"><path fill="#AEAEAE" d="M0 15c8.284 0 15-6.716 15-15S8.284-15 0-15-15-8.284-15 0s6.716 15 15 15z"/><text transform="matrix(1 0 0 -1 -5.006 -5.4)" fill="#FFF" font-family="'ArialMT'" font-size="18">9</text></symbol><symbol id="k" viewBox="-15 -15 30 30"><path fill="#AEAEAE" d="M0 15c8.284 0 15-6.716 15-15S8.284-15 0-15-15-8.284-15 0s6.716 15 15 15z"/><text transform="matrix(1 0 0 -1 -5.006 -5.4)" fill="#FFF" font-family="'ArialMT'" font-size="18">6</text></symbol><symbol id="e" viewBox="-15 -15 30 30"><path fill="#AEAEAE" d="M0 15c8.284 0 15-6.716 15-15S8.284-15 0-15-15-8.284-15 0s6.716 15 15 15z"/><text transform="matrix(1 0 0 -1 -5.006 -5.4)" fill="#FFF" font-family="'ArialMT'" font-size="18">7</text></symbol><symbol id="n" viewBox="-16 -16 32 32"><path fill="#F6F4F4" stroke="#000" stroke-width="2" d="M0 15c8.284 0 15-6.716 15-15S8.284-15 0-15-15-8.284-15 0s6.716 15 15 15z"/></symbol><symbol id="i" viewBox="-15 -15 30 30"><path fill="#AEAEAE" d="M0 15c8.285 0 15-6.716 15-15S8.285-15 0-15c-8.283 0-15 6.716-15 15s6.716 15 15 15z"/><text transform="matrix(1 0 0 -1 -5.006 -5.4)" fill="#FFF" font-family="'ArialMT'" font-size="18">4</text></symbol><symbol id="g" viewBox="-15 -15 30 30"><path fill="#AEAEAE" d="M0 15c8.284 0 15-6.716 15-15S8.284-15 0-15-15-8.284-15 0s6.716 15 15 15z"/><text transform="matrix(1 0 0 -1 -5.006 -5.4)" fill="#FFF" font-family="'ArialMT'" font-size="18">2</text></symbol></defs><path fill="#F5F5F5" stroke="#000" stroke-width="3" d="M8.82 409.943c1.561 9.357 34.16 21.96 42.7 25.618 8.54 3.663 33.549 22.571 42.088 26.231 8.54 3.658 35.989 10.367 43.309 15.248 7.319 4.881 45.749 22.569 56.118 25.621 10.37 3.049 20.74 9.149 55.509 13.419 34.769 4.269 42.089 7.32 85.397 2.44 43.309-4.881 60.39-2.44 72.591-7.93 12.197-5.49 15.248-18.909 15.859-33.551.606-14.639-2.44-60.389-3.663-84.789-1.218-24.397 3.051-41.477 0-51.235-3.047-9.762-12.808-35.382-24.398-44.532-11.59-9.149-1.223-9.149-8.539-25.618-7.322-16.468-35.382-65.88-38.431-74.418-3.05-8.539-10.98-41.48-18.299-44.529-7.32-3.049-14.029-9.759-10.98-17.08 3.051-7.32 14.031-15.859 7.93-20.128-6.099-4.269-35.989-20.74-46.968-26.229-10.98-5.49-27.45-10.37-39.65-17.08-12.199-6.709-34.769-15.25-43.309-9.761-8.54 5.492 2.44-6.099-9.149-12.808-11.59-6.71-43.919-13.419-52.459-13.419-8.54 0-12.809-1.223-30.499 12.196-17.689 13.422-20.13 28.061-20.13 35.382 0 7.318-7.32-.611-15.25-.611s-20.13 7.93-24.4 24.4c-4.269 16.468-8.54 59.777-10.979 61.609-2.44 1.829-30.5 30.499-31.11 46.358-.608 15.86-.608 62.829-.608 77.468 0 14.643 2.44 48.19 3.661 57.951 1.22 9.759 3.05 56.117 3.659 59.777zM509.437 531.375c8.81-1.768 54.49-12.201 75.639-13.013 21.146-.812 45.544-9.757 65.878-13.825 20.334-4.069 111.424-26.838 121.183-26.838 9.762 0 45.544-9.767 63.44-17.899 17.894-8.128 51.241-22.774 88.652-26.838s74.013-15.454 102.478-26.839c28.464-11.385 56.933-26.026 60.997-52.053 4.066-26.026-11.388-105.729-13.825-127.687-2.44-21.963-8.133-40.668-21.96-61.814-13.828-21.146-15.454-32.536-30.093-43.92-14.64-11.385-9.762-22.774-22.774-41.48-13.011-18.7-23.584-19.517-47.17-19.517-23.589 0-37.414 8.949-43.92 5.692-6.507-3.252-6.108-17.149-43.106-9.756-5.083 1.012-8.135-17.082-14.639-27.655-6.507-10.573-4.879-31.719-38.226-25.215-33.348 6.509-41.478 13.83-46.358 14.642-4.881.812-19.545-7.382-41.479 1.624-11.388 4.68-4.066 14.642-18.706 19.522-14.642 4.88-49.368 4.851-72.691 13.851-16.546 6.385-35.899.338-40.982 19.656-11.15 42.357-8.948 26.772-19.684 50.677-4.953 11.029-12.229 17.482-13.854 21.545-1.626 4.069-13.175 13.94-19.681 18.821-6.505 4.875-25.866 35.672-41.318 90.165s-28.464 106.541-30.092 117.931c-1.627 11.385-8.945 69.13-7.319 78.08 1.626 8.944-1.236 14.059-2.07 25.87-1.512 21.421 4.716 31.908 3.5 44.071-1 10.001 11.118 14.296 17 14.973 18.168 2.091 27.112-1.954 31.18-2.771z"/><path d="M65.559 205.454c-6.39-7.436-10.277-16.948-15.738-25.053-3.619-5.371-10.301-14.684-17.835-10.398-.658.375-1 2.234.027 1.649 7.562-4.302 14.527 7.08 17.844 12.192 4.9 7.55 8.568 16.263 14.461 23.12.596.692 1.744-.926 1.241-1.51z"/><path fill="none" stroke="#000" stroke-width="2" d="M333.332 509.418c-4.577-25.395 6.817-38.271-13.581-56.333s-24.458-27.222-53.518-45.582-47.479-18.761-46.479-43.62-1.643-52.165-.116-82.648M83.592 84.861c24.887 19.273 67.044 20.588 93.164 20.583M338.212 418.843c47.543 20.181 68.534 13.042 82.539 10.111M298.083 263.137c40.672 16.887 50.096 24.264 90.384 25.575"/><path fill="#F5F5F5" stroke="#000" stroke-width="2" d="M466.433 376.379c44-15.062 154.495-62.117 176.409-77.736s31.08-56.619 53.997-91.619"/><path fill="none" stroke="#E42322" stroke-width="3" stroke-dasharray="20,5" d="M107.23 462.402c1.626-34.159 22.773-82.958 22.773-144.771 0-61.81-17.892-110.61-11.386-152.902 6.507-42.292 21.146-97.597 19.52-125.249M391.892 511.2c1.624-43.92 3.252-97.597-3.252-135.008-6.508-37.413-32.535-89.467-45.548-135.013-13.013-45.544-61.812-69.944-39.038-125.249M520.755 525.523c1.626-42.292 2.546-72.146-5.585-99.801-8.132-27.655-35.012-72.464-23.626-114.756 11.386-42.291 21.146-78.079 35.786-99.225s45.544-53.677 45.544-63.438c0-9.762 45.546-26.026 39.04-68.318"/><path fill="none" stroke="#E42322" stroke-width="3" stroke-dasharray="20,5" d="M551.729 519.174c8.135-73.193 4.881-178.928 16.265-217.968 11.39-39.04 22.774-84.583 34.159-115.49 11.39-30.907 40.688-76.703 40.688-107.604M616.794 509.418c-1.626-45.549 8.133-79.703 26.026-117.119 17.892-37.416 30.907-82.96 56.934-128.504 26.024-45.549 73.196-95.973 86.21-125.252 13.013-29.278 45.546-69.946 42.291-113.861"/><path fill="none" stroke="#E42322" stroke-width="3" stroke-dasharray="20,5" d="M790.844 470.378c-3.252-50.43-37.413-82.96-52.055-125.252-14.64-42.291-48.796-53.676-39.035-81.331M912.841 431.338c-6.509-74.827-21.146-165.914-37.411-226.1-16.268-60.19-39.039-161.039-43.92-175.676M237.438 358.273s-1.843-77.895 4.802-130.107c5.356-42.076-4.879-63.438-14.639-91.09-9.76-27.653-25.618-45.546-22.366-65.064M347.973 514.455c-1.626-39.04-20.876-70.353-33.89-89.873-13.013-19.52-68.511-41.91-76.645-66.309"/><path fill="none" stroke="#E42322" stroke-width="3" stroke-dasharray="20,5" d="M710.405 490.66c1.434-53.555 9.555-79.261-14.005-103.906s-74.425-46.9-65.491-105.52c8.934-58.619 40.183-201.104 42.354-219.152"/><use xlink:href="#e" width="30" height="30" x="-15" y="-15" transform="matrix(1 0 0 -1 711.838 475.103)" overflow="visible"/><use xlink:href="#e" width="30" height="30" x="-15" y="-15" transform="matrix(1 0 0 -1 657.841 153.62)" overflow="visible"/><use xlink:href="#f" width="30" height="30" x="-15" y="-15" transform="matrix(1 0 0 -1 108.868 448.604)" overflow="visible"/><use xlink:href="#g" width="30" height="30" x="-15" y="-15" transform="matrix(1 0 0 -1 351.856 503.602)" overflow="visible"/><use xlink:href="#h" width="30" height="30" x="-15" y="-15" transform="matrix(1 0 0 -1 395.354 499.102)" overflow="visible"/><use xlink:href="#i" width="30" height="30" x="-15" y="-15" transform="matrix(1 0 0 -1 500.17 403.843)" overflow="visible"/><use xlink:href="#j" width="30" height="30" x="-15" y="-15" transform="matrix(1 0 0 -1 554.346 503.102)" overflow="visible"/><use xlink:href="#k" width="30" height="30" x="-15" y="-15" transform="matrix(1 0 0 -1 617.343 494.103)" overflow="visible"/><use xlink:href="#k" width="30" height="30" x="-15" y="-15" transform="matrix(1 0 0 -1 799.537 116.738)" overflow="visible"/><use xlink:href="#l" width="30" height="30" x="-15" y="-15" transform="matrix(1 0 0 -1 912.828 416.606)" overflow="visible"/><path d="M492.929 267.176c24.443-6.284 47.561-19.316 67.997-33.864.708-.504.676-2.153-.393-1.393-10.295 7.329-21.149 13.869-32.387 19.646-11.119 5.716-22.748 10.693-34.879 13.812-.722.185-1.323 2.052-.338 1.799z"/><path d="M558.526 234.565c13.494-8.068 27.044-16.043 40.841-23.584 13.628-7.45 27.542-14.698 42.128-20.103.689-.256 1.262-2.141.34-1.799-14.197 5.261-27.735 12.251-41.026 19.453-14.313 7.755-28.34 16.031-42.31 24.383-.646.387-.984 2.255.027 1.65z"/><path d="M640.385 190.879c11.69-2.562 22.583-8.104 32.997-13.835 10.988-6.047 21.558-12.831 32.603-18.775.67-.36 1.018-2.212-.027-1.649-10.558 5.682-20.692 12.113-31.152 17.97-10.728 6.007-21.986 11.84-34.08 14.491-.732.159-1.343 2.018-.341 1.798z"/><path d="M705.801 158.344c19.036-6.428 38.34-13.219 55.619-23.635.644-.388.981-2.257-.027-1.649-17.174 10.353-36.334 17.098-55.252 23.486-.7.236-1.281 2.116-.34 1.798z"/><path d="M761.775 133.283c6.72-8.19 7.896-18.804 10.311-28.749.309-1.273-1.204-.458-1.402.356-2.281 9.393-3.294 19.613-9.645 27.353-.65.793-.111 2.071.736 1.04z"/><use xlink:href="#m" width="30" height="30" x="-15" y="-15" transform="matrix(1 0 0 -1 794.333 457.603)" overflow="visible"/><use xlink:href="#n" width="32" height="32" x="-16" y="-16" transform="matrix(1 0 0 -1 613.021 84.86)" overflow="visible"/><use xlink:href="#n" width="32" height="32" x="-16" y="-16" transform="matrix(1 0 0 -1 673.263 66.973)" overflow="visible"/><use xlink:href="#n" width="32" height="32" x="-16" y="-16" transform="matrix(1 0 0 -1 829.168 27.546)" overflow="visible"/><use xlink:href="#n" width="32" height="32" x="-16" y="-16" transform="matrix(1 0 0 -1 645.908 88.48)" overflow="visible"/><use xlink:href="#n" width="32" height="32" x="-16" y="-16" transform="matrix(1 0 0 -1 298.083 118.861)" overflow="visible"/><use xlink:href="#n" width="32" height="32" x="-16" y="-16" transform="matrix(1 0 0 -1 211.986 81.715)" overflow="visible"/><use xlink:href="#n" width="32" height="32" x="-16" y="-16" transform="matrix(1 0 0 -1 135.697 54.191)" overflow="visible"/></svg>