<svg xmlns="http://www.w3.org/2000/svg" xmlns:xlink="http://www.w3.org/1999/xlink" viewBox="0 0 835.39 614.95"><defs><symbol id="Vier" data-name="Vier" viewBox="0 0 30 30"><circle class="cls-1" cx="15" cy="15" r="15" transform="rotate(-67.5 15 15.002)"/><text class="cls-2" transform="translate(9.99 20.4)">4</text></symbol><symbol id="Fünf" data-name="Fünf" viewBox="0 0 30 30"><circle class="cls-1" cx="15" cy="15" r="15"/><text class="cls-2" transform="translate(9.99 20.4)">5</text></symbol><symbol id="Acht" data-name="Acht" viewBox="0 0 30 30"><circle class="cls-1" cx="15" cy="15" r="15"/><text class="cls-2" transform="translate(9.99 20.4)">8</text></symbol><symbol id="Sieben" data-name="Sieben" viewBox="0 0 30 30"><circle class="cls-1" cx="15" cy="15" r="15"/><text class="cls-2" transform="translate(9.99 20.4)">7</text></symbol><symbol id="Sechs" data-name="Sechs" viewBox="0 0 30 30"><circle class="cls-1" cx="15" cy="15" r="15"/><text class="cls-2" transform="translate(9.99 20.4)">6</text></symbol><symbol id="Zwei" data-name="Zwei" viewBox="0 0 30 30"><circle class="cls-1" cx="15" cy="15" r="15"/><text class="cls-2" transform="translate(9.99 20.4)">2</text></symbol><symbol id="Eins" data-name="Eins" viewBox="0 0 30 30"><circle class="cls-1" cx="15" cy="15" r="15"/><text class="cls-2" transform="translate(9.99 20.4)">1</text></symbol><symbol id="Zehn" data-name="Zehn" viewBox="0 0 30 30"><circle class="cls-1" cx="15" cy="15" r="15"/><text class="cls-2" transform="translate(4.99 20.4)">10</text></symbol><symbol id="Zwölf" data-name="Zwölf" viewBox="0 0 30 30"><circle class="cls-1" cx="15" cy="15" r="15"/><text class="cls-2" transform="translate(4.99 20.4)">12</text></symbol><symbol id="Dreizehn" data-name="Dreizehn" viewBox="0 0 30 30"><circle class="cls-1" cx="15" cy="15" r="15"/><text class="cls-2" transform="translate(4.99 20.4)">13</text></symbol><symbol id="Drei" data-name="Drei" viewBox="0 0 30 30"><circle class="cls-1" cx="15" cy="15" r="15"/><text class="cls-2" transform="translate(9.99 20.4)">3</text></symbol><symbol id="Neun" data-name="Neun" viewBox="0 0 30 30"><circle class="cls-1" cx="15" cy="15" r="15"/><text class="cls-2" transform="translate(9.99 20.4)">9</text></symbol><symbol id="Elf" data-name="Elf" viewBox="0 0 30 30"><circle class="cls-1" cx="15" cy="15" r="15"/><text class="cls-2" transform="translate(5.66 20.4)"><tspan letter-spacing="-.07em">1</tspan><tspan x="8.67" y="0">1</tspan></text></symbol><symbol id="Umlenkung-2" data-name="Umlenkung" viewBox="0 0 32 32"><circle cx="16" cy="16" r="15" stroke="#000" stroke-width="2" fill="#fff"/><text class="cls-2" transform="translate(10.99 21.4)">8</text></symbol><style>.cls-1{fill:#aeaeae}.cls-2{isolation:isolate;font-size:18px;font-family:ArialMT,Arial;fill:#fff}.cls-5,.cls-7,.cls-8{fill:#f6f4f4;stroke:#1a171b;stroke-width:3px}.cls-7,.cls-8{fill:none;stroke:#e32523}.cls-7{stroke-dasharray:20 5}.cls-8{stroke-dasharray:20 3}</style></defs><g id="hintergrund"><path class="cls-5" d="M119.24 517.8c32 0 93.92 30 129.92 16s55.53-20.93 55.53-20.93M547.24 251.8c64-30 90-68 124-78s72-6 106 0" transform="translate(-84.87 -37.13)"/><path d="M60.86 604.41c17 0 39.71 2.65 69.71-6.17s56.48-9.71 95.31-7.06 101.48 14.11 148.25 10.59 84.71-4.42 90-4.42 41.48 9.71 62.65 9.71 87.37 3.53 98 3.53-3.53 7.94 52.06-2.65 96.62 6.09 118.25-31.76c10.59-18.54 28.24-135 31.77-178.26s12.35-175.61 2.65-198.55-14.15-83.84-18.56-101.5-7.06-76.77-34.42-86.48a109 109 0 00-64.4-2.64c-13.26 3.53-23.85 14.12-26.5 14.12s-24.71-8.82-47.65-9.7-52.06 6.17-74.12 1.76-59.13-15-70.6-13.24-26.47 7.06-43.24 7.06-25.59-6.17-56.48 7.95-34.41 22.94-39.71 22.94-31.77-11.47-46.77-12.35-37.06-.89-44.12.88-17.65-1.77-36.18-4.41-39.71 0-64.42 4.41-63.54 8.82-78.54 17.7-34.42 23.82-51.18 60-30.89 80.31-30 134.14-3.49 127.02.88 143.79 13.23 109.43 17.64 128 14.12 64.41 23.83 75.89 13.24 16.72 15.89 16.72z" fill="#f7f5f4" stroke-width="3" stroke="#1a171b"/></g><g id="tourenlinien"><path class="cls-7" d="M821.25 495.06c22.5-19.86 11.58-38.45 25-95.63 14.8-62.9 10.46-84.84 9-129.11s-1.5-90.38-1.5-119.89-3-88.53-4.49-94.06M270 623.53c0-52.57 4.48-105.14-6.73-157.7S222.91 396.66 218.42 333s2.25-132.8 0-168.76-2.24-63.64-2.24-74.71" transform="translate(-84.87 -37.13)"/><path class="cls-8" d="M257.36 414.31c3-44.26 16.37-86.81 19.37-142.15s-1.5-94.06 6-125.42 15.68-36.22 22.3-46.14M350 446.08c11.22-38.73 10.43-35.59 14.91-74.32 6.32-54.51 28.53-80 26.91-121.73-1.3-33.83-18.39-75.76-32.88-99.6-22.42-36.89-28.44-37.43-38.71-53.14" transform="translate(-84.87 -37.13)"/><path d="M228.13 60.87c0 11.07 11.62 50.64 11.62 89.37s11.16 105.08 13.38 177.02-.75 98.67 8.22 140.17 15.69 88.53 13.45 124.5" stroke="#e22624" stroke-dasharray="20 5" fill="none" stroke-width="3"/><path class="cls-8" d="M442.66 631.82c-1.49-84.84-1.5-154.93-1.5-215.79s9-116.17 9-164.16c0-105.13 12.32-166.12 10.82-179" transform="translate(-84.87 -37.13)"/><path class="cls-8" d="M467.33 631.82c-3-81.15 23.91-125.42 23.91-158.62 0-77.46 7.48-132.8 3-199.19s-6-99.6-10.46-129.11-22.43-66.4-25.42-71.9M597.38 638.74c0-37.35 6.73-87.15-4.48-148s-20.19-132.8-24.67-163.23-2.24-60.87 0-94.07 11.22-99.6 13.46-141.1 3-35 1.49-50.72M658 634.59c1.49-75.62-13.56-74.7-12.06-148.47s0-151.24 0-171.53-22.43-5.54-25.41-59-6-88.53 12-121.73 26.91-48 26.91-70.08M646 310.89c26.91-31.35 22.17-28.51 36.29-48.8M707.41 509.62c-13.45-24-19.59-25.35-21.08-77a1204.82 1204.82 0 013-130.95c3-40.58 3-84.84 3-131s1.5-95.91-4.49-107M809.78 634c0-49.79 2.12-90.72.63-123.92s0-33.19-13.46-112.5S782 274 782 227.9s4.48-110.67 4.48-134.64M728.19 646.58c-3-48-17.94-77.47-4.49-153.09S746.13 381 746.13 305.36s-4.49-134.64-1.5-169.68 12-57.18 12-68.25" transform="translate(-84.87 -37.13)"/></g><g id="nummerrierung"><use width="30" height="30" transform="translate(290.8 201.66)" xlink:href="#Vier"/><use width="30" height="30" transform="translate(341.29 319.88)" xlink:href="#Fünf"/><use width="30" height="30" transform="translate(521.06 205.33)" xlink:href="#Acht"/><use width="30" height="30" transform="translate(478.55 356.35)" xlink:href="#Sieben"/><use width="30" height="30" transform="translate(395.8 304.88)" xlink:href="#Sechs"/><use width="30" height="30" transform="translate(176.62 247.19)" xlink:href="#Zwei"/><use width="30" height="30" transform="translate(118.72 235.94)" xlink:href="#Eins"/><use width="30" height="30" transform="translate(588.23 324.87)" xlink:href="#Zehn"/><use width="30" height="30" transform="translate(682.14 220.94)" xlink:href="#Zwölf"/><use width="30" height="30" transform="translate(757.14 273.17)" xlink:href="#Dreizehn"/><use width="30" height="30" transform="translate(232.91 221.42)" xlink:href="#Drei"/><use width="30" height="30" transform="translate(569.73 223.58)" xlink:href="#Neun"/><use width="30" height="30" transform="translate(645.39 316.87)" xlink:href="#Elf"/></g><g id="umlenkung"><use width="32" height="32" transform="translate(748.44 12.62)" xlink:href="#Umlenkung-2"/><use width="32" height="32" transform="translate(688.05 46.81)" xlink:href="#Umlenkung-2"/><use width="32" height="32" transform="translate(648.29 20.73)" xlink:href="#Umlenkung-2"/><use width="32" height="32" transform="translate(589.07 15.78)" xlink:href="#Umlenkung-2"/><use width="32" height="32" transform="translate(554.84 21.53)" xlink:href="#Umlenkung-2"/><use width="32" height="32" transform="translate(482.56 4.23)" xlink:href="#Umlenkung-2"/><use width="32" height="32" transform="translate(365.34 33.02)" xlink:href="#Umlenkung-2"/><use width="32" height="32" transform="translate(211.47 40.13)" xlink:href="#Umlenkung-2"/><use width="32" height="32" transform="translate(117.61 40.13)" xlink:href="#Umlenkung-2"/></g></svg>