<svg xmlns="http://www.w3.org/2000/svg" xmlns:xlink="http://www.w3.org/1999/xlink" width="1140" height="650"><symbol id="l" viewBox="-15 -15 30 30"><path fill="#AEAEAE" d="M0 15c8.284 0 15-6.716 15-15S8.284-15 0-15-15-8.284-15 0s6.716 15 15 15z"/><text transform="matrix(1 0 0 -1 -5.006 -5.4)" fill="#FFF" font-family="'ArialMT'" font-size="18">8</text></symbol><symbol id="t" viewBox="-15 -15 30 30"><path fill="#AEAEAE" d="M0 15c8.284 0 15-6.716 15-15S8.284-15 0-15-15-8.284-15 0s6.716 15 15 15z"/><text transform="matrix(1 0 0 -1 -10.01 -5.4)" fill="#FFF" font-family="'ArialMT'" font-size="18">18</text></symbol><symbol id="b" viewBox="-4.394 -3.638 8.787 7.274"><path fill="none" stroke="#000" stroke-width="1.006" stroke-linecap="round" stroke-linejoin="round" stroke-miterlimit="1" d="M-3.891-3.135l6.266 6.268s2.598-2.398.99-4.007C1.845-2.395-.688.068-.688.068"/></symbol><symbol id="d" viewBox="-3.115 -2.608 6.231 5.214"><use xlink:href="#a" width="5.9" height="4.884" x="-2.95" y="-2.442" transform="scale(-1 1)" overflow="visible"/></symbol><symbol id="a" viewBox="-2.95 -2.442 5.9 4.884"><use xlink:href="#b" width="8.787" height="7.274" x="-4.394" y="-3.638" transform="scale(.6714)" overflow="visible"/></symbol><symbol id="g" viewBox="-15 -15 30 30"><path fill="#AEAEAE" d="M0 15c8.284 0 15-6.716 15-15S8.284-15 0-15-15-8.284-15 0s6.716 15 15 15z"/><text transform="matrix(1 0 0 -1 -5.006 -5.4)" fill="#FFF" font-family="'ArialMT'" font-size="18">3</text></symbol><symbol id="q" viewBox="-15 -15 30 30"><path fill="#AEAEAE" d="M0 15c8.284 0 15-6.716 15-15S8.284-15 0-15-15-8.284-15 0s6.716 15 15 15z"/><text transform="matrix(1 0 0 -1 -10.01 -5.4)" fill="#FFF" font-family="'ArialMT'" font-size="18">13</text></symbol><symbol id="e" viewBox="-15 -15 30 30"><path fill="#AEAEAE" d="M0 15c8.284 0 15-6.716 15-15S8.284-15 0-15-15-8.284-15 0s6.716 15 15 15z"/><text transform="matrix(1 0 0 -1 -5.006 -5.4)" fill="#FFF" font-family="'ArialMT'" font-size="18">1</text></symbol><symbol id="p" viewBox="-15 -15 30 30"><path fill="#AEAEAE" d="M0 15c8.284 0 15-6.716 15-15S8.284-15 0-15-15-8.284-15 0s6.716 15 15 15z"/><text transform="matrix(1 0 0 -1 -9.343 -5.4)" fill="#FFF" font-family="'ArialMT'" font-size="18">11</text></symbol><symbol id="i" viewBox="-15 -15 30 30"><path fill="#AEAEAE" d="M0 15c8.284 0 15-6.716 15-15S8.284-15 0-15-15-8.284-15 0s6.716 15 15 15z"/><text transform="matrix(1 0 0 -1 -5.006 -5.4)" fill="#FFF" font-family="'ArialMT'" font-size="18">5</text></symbol><symbol id="v" viewBox="-15 -15 30 30"><path fill="#AEAEAE" d="M0 15c8.284 0 15-6.716 15-15S8.284-15 0-15-15-8.284-15 0s6.716 15 15 15z"/><text transform="matrix(1 0 0 -1 -10.01 -5.4)" fill="#FFF" font-family="'ArialMT'" font-size="18">15</text></symbol><symbol id="c" viewBox="-3.563 -2.983 7.126 5.964"><use xlink:href="#d" width="6.231" height="5.214" x="-3.115" y="-2.608" transform="scale(1.1437)" overflow="visible"/></symbol><symbol id="m" viewBox="-15 -15 30 30"><path fill="#AEAEAE" d="M0 15c8.284 0 15-6.716 15-15S8.284-15 0-15-15-8.284-15 0s6.716 15 15 15z"/><text transform="matrix(1 0 0 -1 -5.006 -5.4)" fill="#FFF" font-family="'ArialMT'" font-size="18">9</text></symbol><symbol id="u" viewBox="-15 -15 30 30"><path fill="#AEAEAE" d="M0 15c8.284 0 15-6.716 15-15S8.284-15 0-15-15-8.284-15 0s6.716 15 15 15z"/><text transform="matrix(1 0 0 -1 -10.01 -5.4)" fill="#FFF" font-family="'ArialMT'" font-size="18">19</text></symbol><symbol id="j" viewBox="-15 -15 30 30"><path fill="#AEAEAE" d="M0 15c8.284 0 15-6.716 15-15S8.284-15 0-15-15-8.284-15 0s6.716 15 15 15z"/><text transform="matrix(1 0 0 -1 -5.006 -5.4)" fill="#FFF" font-family="'ArialMT'" font-size="18">6</text></symbol><symbol id="w" viewBox="-15 -15 30 30"><path fill="#AEAEAE" d="M0 15c8.284 0 15-6.716 15-15S8.284-15 0-15-15-8.284-15 0s6.716 15 15 15z"/><text transform="matrix(1 0 0 -1 -10.01 -5.4)" fill="#FFF" font-family="'ArialMT'" font-size="18">16</text></symbol><symbol id="k" viewBox="-15 -15 30 30"><path fill="#AEAEAE" d="M0 15c8.284 0 15-6.716 15-15S8.284-15 0-15-15-8.284-15 0s6.716 15 15 15z"/><text transform="matrix(1 0 0 -1 -5.006 -5.4)" fill="#FFF" font-family="'ArialMT'" font-size="18">7</text></symbol><symbol id="s" viewBox="-15 -15 30 30"><path fill="#AEAEAE" d="M0 15c8.284 0 15-6.716 15-15S8.284-15 0-15-15-8.284-15 0s6.716 15 15 15z"/><text transform="matrix(1 0 0 -1 -10.01 -5.4)" fill="#FFF" font-family="'ArialMT'" font-size="18">17</text></symbol><symbol id="x" viewBox="-12.339 -12.339 24.678 24.677"><path fill="#F6F4F4" stroke="#000" stroke-width="2" d="M0 11.338c6.262 0 11.339-5.076 11.339-11.338S6.262-11.339 0-11.339-11.339-6.262-11.339 0-6.262 11.338 0 11.338z"/></symbol><symbol id="h" viewBox="-15 -15 30 30"><path fill="#AEAEAE" d="M0 15c8.285 0 15-6.716 15-15S8.285-15 0-15c-8.283 0-15 6.716-15 15s6.716 15 15 15z"/><text transform="matrix(1 0 0 -1 -5.006 -5.4)" fill="#FFF" font-family="'ArialMT'" font-size="18">4</text></symbol><symbol id="r" viewBox="-15 -15 30 30"><path fill="#AEAEAE" d="M0 15c8.284 0 15-6.716 15-15S8.284-15 0-15-15-8.284-15 0s6.716 15 15 15z"/><text transform="matrix(1 0 0 -1 -10.01 -5.4)" fill="#FFF" font-family="'ArialMT'" font-size="18">14</text></symbol><symbol id="n" viewBox="-15 -15 30 30"><path fill="#AEAEAE" d="M0 15c8.284 0 15-6.716 15-15S8.284-15 0-15-15-8.284-15 0s6.716 15 15 15z"/><text transform="matrix(1 0 0 -1 -10.01 -5.4)" fill="#FFF" font-family="'ArialMT'" font-size="18">10</text></symbol><symbol id="f" viewBox="-15 -15 30 30"><path fill="#AEAEAE" d="M0 15c8.284 0 15-6.716 15-15S8.284-15 0-15-15-8.284-15 0s6.716 15 15 15z"/><text transform="matrix(1 0 0 -1 -5.006 -5.4)" fill="#FFF" font-family="'ArialMT'" font-size="18">2</text></symbol><symbol id="o" viewBox="-15 -15 30 30"><path fill="#AEAEAE" d="M0 15c8.284 0 15-6.716 15-15S8.284-15 0-15-15-8.284-15 0s6.716 15 15 15z"/><text transform="matrix(1 0 0 -1 -10.01 -5.4)" fill="#FFF" font-family="'ArialMT'" font-size="18">12</text></symbol><g fill="#F7F4F4"><path d="M495.236 424.406c9-41.61 20-83.2 18-99.405M368.236 550.795c6-43 8-104 14-117s8-18 8-18c16-4 35-7 48 0s30 5 35 20 15.59 35.079 15.59 35.079"/><path stroke="#000" stroke-width="3" d="M293.236 638.795c37-6 119.546-46.285 132.833-57.572 35.715-30.338 134-118 136-134s-10-42-10-42c0-22 12-50 30-50s55.999 28 91.999 25 120-39 124-51-32-84-34-128 0-78-30-84-52-20-78-16-41.999 26.82-45.999 40.41 25.999-102.41 9.999-112.41c-15.999-10-68.943-38-119.471-16s-80.528 16-94.528 92-47.232 97.667-59.232 117.667S289.49 277 269.49 325s-40.151 74.795-42.151 138.795-29.08 181.418 2.73 185.428c6.167.777 63.167-10.428 63.167-10.428zM593.973 352.4c6.086-129.795 9.218-177.508 16.098-210.766"/><path stroke="#000" stroke-width="3" d="M303.072 636.692c5.957-81.009 8.719-235.902 23.84-261.988s39.036-101.094 55.581-110.095 8.463 0 44.007 0 63.16 3.001 77.855 12.001 60.842 87.97 60.842 87.97"/></g><g fill="none" stroke="#E42322" stroke-width="3" stroke-dasharray="20,5"><path d="M813.068 325c-15.832-51.205-30.941-103.205-32.387-139.205s-14.549-88-34.997-92c0 0-39.747-10-58.098-12s-28.351-2-42.351-30S632.904 10.001 610.07 5"/><path d="M753.236 352.4c-12-58.604-15.104-110.604-22.552-154.604s-13.098-56.162-13.098-56.162M702.587 361.795c-1.351-56-.649-106 0-148s9.282-52.323 6.966-72.162M623.236 352.4c2-44.604 0-22.979 0-91.792s-7.869-88.222.889-118.975M578.973 337.795c2.264-80 3-92 10.264-152s24.93-94 16.881-138M551.859 337.795c1.377-50 8.85-129.59 12.113-172.795s19.856-84.588 30-117.205M242.339 636.692c.897-100.896 24.706-248.119 25.801-293.508M277.339 621.795c3.897-80 21.249-274 19.573-320M297.026 621.795c2.21-78 7.205-174 9.708-218s20.669-107.233 20.179-132M331.411 621.795c-2.175-52 17.885-148 15.855-184s8.708-96 12.339-106 19.181-44 19.181-44M363.786 606.795c4.45-56 13.45-133 18.45-173s32.223-134.027 30.257-152M382.493 529.795c22.743-40 31.271-56.779 44.007-105.39s33.264-130.61 33-152.61M471.494 541.314c1.742-73.519-1.742-117.519 0-164.519s1.264-65 .503-95M513.475 481.196c-2.238-55.4-5.641-91.4-6.939-134.4s-2.18-62.338-2.18-62.338M521.236 424.406c10-32.61 10.399-61.132 6.829-92.61M521.236 281.795c4-52 12.025-86 18.013-138s14.013-94 15-124M495.236 251.714c0-61.919-2-93.919 0-143.919s-4.694-72.235-6.41-73.338M452.481 247.017c.755-41.222-2.755-62.544 0-90.883s13.073-83.937 20.203-109.339M400.897 239.795c8.339-74 17.017-106 24.678-142s8.56-50 8.56-50"/></g><use xlink:href="#e" width="30" height="30" x="-15" y="-15" transform="matrix(1 0 0 -1 242.34 621.795)" overflow="visible"/><use xlink:href="#f" width="30" height="30" x="-15" y="-15" transform="matrix(1 0 0 -1 277.34 621.795)" overflow="visible"/><use xlink:href="#g" width="30" height="30" x="-15" y="-15" transform="matrix(1 0 0 -1 319.072 337.457)" overflow="visible"/><use xlink:href="#h" width="30" height="30" x="-15" y="-15" transform="matrix(1 0 0 -1 329.237 606.795)" overflow="visible"/><use xlink:href="#i" width="30" height="30" x="-15" y="-15" transform="matrix(1 0 0 -1 368.236 597.2)" overflow="visible"/><use xlink:href="#j" width="30" height="30" x="-15" y="-15" transform="matrix(1 0 0 -1 420.998 461.795)" overflow="visible"/><use xlink:href="#k" width="30" height="30" x="-15" y="-15" transform="matrix(1 0 0 -1 472.684 529.795)" overflow="visible"/><use xlink:href="#l" width="30" height="30" x="-15" y="-15" transform="matrix(1 0 0 -1 512.594 486.584)" overflow="visible"/><use xlink:href="#m" width="30" height="30" x="-15" y="-15" transform="matrix(1 0 0 -1 530.115 411.596)" overflow="visible"/><use xlink:href="#n" width="30" height="30" x="-15" y="-15" transform="matrix(1 0 0 -1 400.897 239.795)" overflow="visible"/><use xlink:href="#o" width="30" height="30" x="-15" y="-15" transform="matrix(1 0 0 -1 492.216 247.017)" overflow="visible"/><use xlink:href="#p" width="30" height="30" x="-15" y="-15" transform="matrix(1 0 0 -1 454.84 239.795)" overflow="visible"/><use xlink:href="#q" width="30" height="30" x="-15" y="-15" transform="matrix(1 0 0 -1 518.898 269.457)" overflow="visible"/><use xlink:href="#r" width="30" height="30" x="-15" y="-15" transform="matrix(1 0 0 -1 554.249 316.19)" overflow="visible"/><use xlink:href="#s" width="30" height="30" x="-15" y="-15" transform="matrix(1 0 0 -1 701.815 376.795)" overflow="visible"/><use xlink:href="#t" width="30" height="30" x="-15" y="-15" transform="matrix(1 0 0 -1 753.236 361.795)" overflow="visible"/><use xlink:href="#u" width="30" height="30" x="-15" y="-15" transform="matrix(1 0 0 -1 813.068 337.795)" overflow="visible"/><use xlink:href="#v" width="30" height="30" x="-15" y="-15" transform="matrix(1 0 0 -1 578.973 346.795)" overflow="visible"/><use xlink:href="#w" width="30" height="30" x="-15" y="-15" transform="matrix(1 0 0 -1 621.117 358.184)" overflow="visible"/><g><use xlink:href="#x" width="24.678" height="24.677" x="-12.339" y="-12.339" transform="matrix(1 0 0 -1 713.553 136.634)" overflow="visible"/><use xlink:href="#x" width="24.678" height="24.677" x="-12.339" y="-12.339" transform="matrix(1 0 0 -1 627.236 143.795)" overflow="visible"/><use xlink:href="#x" width="24.678" height="24.677" x="-12.339" y="-12.339" transform="matrix(1 0 0 -1 599.236 46.795)" overflow="visible"/><use xlink:href="#x" width="24.678" height="24.677" x="-12.339" y="-12.339" transform="matrix(1 0 0 -1 378.236 296.795)" overflow="visible"/><use xlink:href="#x" width="24.678" height="24.677" x="-12.339" y="-12.339" transform="matrix(1 0 0 -1 329.236 281.795)" overflow="visible"/><use xlink:href="#x" width="24.678" height="24.677" x="-12.339" y="-12.339" transform="matrix(1 0 0 -1 297.236 311.795)" overflow="visible"/><use xlink:href="#x" width="24.678" height="24.677" x="-12.339" y="-12.339" transform="matrix(1 0 0 -1 273.236 349.795)" overflow="visible"/><use xlink:href="#x" width="24.678" height="24.677" x="-12.339" y="-12.339" transform="matrix(1 0 0 -1 413.236 281.795)" overflow="visible"/><use xlink:href="#x" width="24.678" height="24.677" x="-12.339" y="-12.339" transform="matrix(1 0 0 -1 462.236 281.795)" overflow="visible"/><use xlink:href="#x" width="24.678" height="24.677" x="-12.339" y="-12.339" transform="matrix(1 0 0 -1 531.236 339.795)" overflow="visible"/><use xlink:href="#x" width="24.678" height="24.677" x="-12.339" y="-12.339" transform="matrix(1 0 0 -1 555.236 25.795)" overflow="visible"/><use xlink:href="#x" width="24.678" height="24.677" x="-12.339" y="-12.339" transform="matrix(1 0 0 -1 485.236 37.795)" overflow="visible"/><use xlink:href="#x" width="24.678" height="24.677" x="-12.339" y="-12.339" transform="matrix(1 0 0 -1 435.236 57.795)" overflow="visible"/></g></svg>