<svg xmlns="http://www.w3.org/2000/svg" xmlns:xlink="http://www.w3.org/1999/xlink" viewBox="0 0 459.7 556.9"><defs><symbol id="Zwei" data-name="Zwei" viewBox="0 0 30 30"><circle class="cls-1" cx="15" cy="15" r="15"/><text class="cls-2" transform="translate(9.99 20.4)">2</text></symbol><symbol id="Drei" data-name="Drei" viewBox="0 0 30 30"><circle class="cls-1" cx="15" cy="15" r="15"/><text class="cls-2" transform="translate(9.99 20.4)">3</text></symbol><symbol id="Eins" data-name="Eins" viewBox="0 0 30 30"><circle class="cls-1" cx="15" cy="15" r="15"/><text class="cls-2" transform="translate(9.99 20.4)">1</text></symbol><symbol id="Umlenkung-2" data-name="Umlenkung" viewBox="0 0 32 32"><circle cx="16" cy="16" r="15" stroke-width="2" stroke="#000" fill="#fff"/><text class="cls-2" transform="translate(10.99 21.4)">8</text></symbol><style>.cls-1{fill:#aeaeae}.cls-2{isolation:isolate;font-size:18px;font-family:ArialMT,Arial;fill:#fff}.cls-6{stroke-width:3px;fill:none;stroke:#e32523;stroke-dasharray:20 5}.cls-7{fill:#1a171b}</style></defs><g id="hintergrund" stroke-width="3" fill="#f7f5f4"><path d="M7.51 125.1c-2.95 6.66-6.65 32.54-5.91 42.15s10.35 56.21 11.83 67.3-.74 47.32-.74 57.68-2.22 45.1-.74 56.2 6.65 37.71 5.92 51 1.48 32.54 1.48 32.54c4.43 6.65 22.18 22.92 30.31 28.84s43.63 37 58.42 43.63 30.32 23.66 38.46 28.84 28.1 16.26 42.89 19.22 45.1 5.18 50.28-1.48-5.92-41.4-5.92-53.24-16.27-53.24-17.74-62.85-18.49-48.81-17-56.2 8.13-26.26 8.13-49.55c0-20.72 0-90.22-.74-105s-8.61-60.4-11.83-80.6c-4.07-25.51-17-61.38-21.44-68s-21.46-17.77-24.42-25.16-15.52-23.67-25.14-29.61-31.06-18.49-37-19.23-20 2.22-22.19 3.7-10.3 14.82-12.54 20S40.03 55.81 33.8 65.96C18.61 90.74 7.51 125.1 7.51 125.1z" stroke="#000"/><path d="M297.39 523.68c1.24 11.77.74 20.71 10.35 20.71s38.45-3 54.72-3 44.37-1.48 56.94-4.44 17-8.87 22.19-27.36 4.44-37 3-54-3-51.76-1.48-56.94 8.13-21.45 12.57-33.28 2.22-33.27 0-52.5-9.61-71-17.75-84.3-20.71-55.46-28.1-67.29-17-23.67-24.4-26.62-27.37-19.23-32.54-32.54-16.27-35.5-21.45-40.67-25.18-20.64-28.14-26.56-11.83-17-18.48-18.49-25.88 3-31.8 9.61-13.31 16.27-11.83 39.2-1.48 39.93 2.22 77.64 12.57 91.7 19.22 106.49 8.88 39.93 9.62 56.94 15.52 85.78 16.26 105.74 7.4 97.61 8.88 111.66z" stroke="#1a171b"/></g><g id="tourenlinien"><path class="cls-6" d="M199.15 570.22C198 527 183.94 429.64 179.51 403s-7.77-76.54-13.31-104.27-17.75-45.47-17.75-77.64 0-53.24 5.55-67.66 10-38.81 21.07-55.43" transform="translate(-21.88 -30.19)"/><path class="cls-6" d="M179.51 403c11.09-13.31 36.6-46.59 34.38-71s-7.76-109.81-10-126.45-2.15-40.25-7.7-55.78-12.79-21.55-17.19-30.42M371.77 562.75c0-35.5 0-136.07-4.44-179s-35.49-144.93-37-176 19.23-68 23.66-88.74" transform="translate(-21.88 -30.19)"/></g><g id="nummerrierung"><use width="30" height="30" transform="translate(174.41 292.94)" xlink:href="#Zwei"/><use width="30" height="30" transform="translate(334.89 506.03)" xlink:href="#Drei"/><use width="30" height="30" transform="translate(122.08 232.86)" xlink:href="#Eins"/></g><g id="umlenkung"><use width="32" height="32" transform="translate(136.08 64.96)" xlink:href="#Umlenkung-2"/><path class="cls-7" d="M139.89 45.3c-12.19-5-21.4-16.15-35.65-13.45-.49.09-1.06 1.52-.32 1.38 14.61-2.63 22.57 9.25 35.34 13.17.39.12 1-.95.63-1.1zM363.33 202.26c11.49 16.45 22.78 34.79 40 45.9.34.22.85-.64.5-.86-17.15-11.08-28.41-29.4-39.87-45.8-.25-.36-.85.44-.62.76z" transform="translate(-21.88 -30.19)"/><use width="32" height="32" transform="translate(314.96 83.21)" xlink:href="#Umlenkung-2"/></g></svg>