<svg xmlns="http://www.w3.org/2000/svg" xmlns:xlink="http://www.w3.org/1999/xlink" width="1140" height="650" viewBox="-57.216 -12.738 1140 650"><defs><symbol id="o" viewBox="-15 -15 30 30"><path fill="#AEAEAE" d="M0 15c8.284 0 15-6.716 15-15S8.284-15 0-15-15-8.284-15 0s6.716 15 15 15z"/><text transform="matrix(1 0 0 -1 -5.006 -5.4)" fill="#FFF" font-family="'ArialMT'" font-size="18">8</text></symbol><symbol id="v" viewBox="-15 -15 30 30"><path fill="#AEAEAE" d="M0 15c8.284 0 15-6.716 15-15S8.284-15 0-15-15-8.284-15 0s6.716 15 15 15z"/><text transform="matrix(1 0 0 -1 -10.01 -5.4)" fill="#FFF" font-family="'ArialMT'" font-size="18">18</text></symbol><symbol id="b" viewBox="-4.394 -3.638 8.787 7.274"><path fill="none" stroke="#000" stroke-width="1.006" stroke-linecap="round" stroke-linejoin="round" stroke-miterlimit="1" d="M-3.891-3.135l6.266 6.268s2.598-2.398.99-4.007C1.845-2.395-.688.068-.688.068"/></symbol><symbol id="d" viewBox="-3.115 -2.608 6.231 5.214"><use xlink:href="#a" width="5.9" height="4.884" x="-2.95" y="-2.442" transform="scale(-1 1)" overflow="visible"/></symbol><symbol id="a" viewBox="-2.95 -2.442 5.9 4.884"><use xlink:href="#b" width="8.787" height="7.274" x="-4.394" y="-3.638" transform="scale(.6714)" overflow="visible"/></symbol><symbol id="j" viewBox="-15 -15 30 30"><path fill="#AEAEAE" d="M0 15c8.284 0 15-6.716 15-15S8.284-15 0-15-15-8.284-15 0s6.716 15 15 15z"/><text transform="matrix(1 0 0 -1 -5.006 -5.4)" fill="#FFF" font-family="'ArialMT'" font-size="18">3</text></symbol><symbol id="A" viewBox="-15 -15 30 30"><path fill="#AEAEAE" d="M0 15c8.284 0 15-6.716 15-15S8.284-15 0-15-15-8.284-15 0s6.716 15 15 15z"/><text transform="matrix(1 0 0 -1 -10.01 -5.4)" fill="#FFF" font-family="'ArialMT'" font-size="18">23</text></symbol><symbol id="t" viewBox="-15 -15 30 30"><path fill="#AEAEAE" d="M0 15c8.284 0 15-6.716 15-15S8.284-15 0-15-15-8.284-15 0s6.716 15 15 15z"/><text transform="matrix(1 0 0 -1 -10.01 -5.4)" fill="#FFF" font-family="'ArialMT'" font-size="18">13</text></symbol><symbol id="h" viewBox="-15 -15 30 30"><path fill="#AEAEAE" d="M0 15c8.284 0 15-6.716 15-15S8.284-15 0-15-15-8.284-15 0s6.716 15 15 15z"/><text transform="matrix(1 0 0 -1 -5.006 -5.4)" fill="#FFF" font-family="'ArialMT'" font-size="18">1</text></symbol><symbol id="y" viewBox="-15 -15 30 30"><path fill="#AEAEAE" d="M0 15c8.284 0 15-6.716 15-15S8.284-15 0-15-15-8.284-15 0s6.716 15 15 15z"/><text transform="matrix(1 0 0 -1 -10.01 -5.4)" fill="#FFF" font-family="'ArialMT'" font-size="18">21</text></symbol><symbol id="r" viewBox="-15 -15 30 30"><path fill="#AEAEAE" d="M0 15c8.284 0 15-6.716 15-15S8.284-15 0-15-15-8.284-15 0s6.716 15 15 15z"/><text transform="matrix(1 0 0 -1 -9.343 -5.4)"><tspan x="0" y="0" fill="#FFF" font-family="'ArialMT'" font-size="18" letter-spacing="-1">1</tspan><tspan x="8.675" y="0" fill="#FFF" font-family="'ArialMT'" font-size="18">1</tspan></text></symbol><symbol id="l" viewBox="-15 -15 30 30"><path fill="#AEAEAE" d="M0 15c8.284 0 15-6.716 15-15S8.284-15 0-15-15-8.284-15 0s6.716 15 15 15z"/><text transform="matrix(1 0 0 -1 -5.006 -5.4)" fill="#FFF" font-family="'ArialMT'" font-size="18">5</text></symbol><symbol id="e" viewBox="-15 -15 30 30"><path fill="#AEAEAE" d="M0 15c8.284 0 15-6.716 15-15S8.284-15 0-15-15-8.284-15 0s6.716 15 15 15z"/><text transform="matrix(1 0 0 -1 -10.01 -5.4)" fill="#FFF" font-family="'ArialMT'" font-size="18">15</text></symbol><symbol id="c" viewBox="-3.563 -2.983 7.126 5.964"><use xlink:href="#d" width="6.231" height="5.214" x="-3.115" y="-2.608" transform="scale(1.1437)" overflow="visible"/></symbol><symbol id="p" viewBox="-15 -15 30 30"><path fill="#AEAEAE" d="M0 15c8.284 0 15-6.716 15-15S8.284-15 0-15-15-8.284-15 0s6.716 15 15 15z"/><text transform="matrix(1 0 0 -1 -5.006 -5.4)" fill="#FFF" font-family="'ArialMT'" font-size="18">9</text></symbol><symbol id="w" viewBox="-15 -15 30 30"><path fill="#AEAEAE" d="M0 15c8.284 0 15-6.716 15-15S8.284-15 0-15-15-8.284-15 0s6.716 15 15 15z"/><text transform="matrix(1 0 0 -1 -10.01 -5.4)" fill="#FFF" font-family="'ArialMT'" font-size="18">19</text></symbol><symbol id="m" viewBox="-15 -15 30 30"><path fill="#AEAEAE" d="M0 15c8.284 0 15-6.716 15-15S8.284-15 0-15-15-8.284-15 0s6.716 15 15 15z"/><text transform="matrix(1 0 0 -1 -5.006 -5.4)" fill="#FFF" font-family="'ArialMT'" font-size="18">6</text></symbol><symbol id="f" viewBox="-15 -15 30 30"><path fill="#AEAEAE" d="M0 15c8.284 0 15-6.716 15-15S8.284-15 0-15-15-8.284-15 0s6.716 15 15 15z"/><text transform="matrix(1 0 0 -1 -10.01 -5.4)" fill="#FFF" font-family="'ArialMT'" font-size="18">16</text></symbol><symbol id="n" viewBox="-15 -15 30 30"><path fill="#AEAEAE" d="M0 15c8.284 0 15-6.716 15-15S8.284-15 0-15-15-8.284-15 0s6.716 15 15 15z"/><text transform="matrix(1 0 0 -1 -5.006 -5.4)" fill="#FFF" font-family="'ArialMT'" font-size="18">7</text></symbol><symbol id="g" viewBox="-15 -15 30 30"><path fill="#AEAEAE" d="M0 15c8.284 0 15-6.716 15-15S8.284-15 0-15-15-8.284-15 0s6.716 15 15 15z"/><text transform="matrix(1 0 0 -1 -10.01 -5.4)" fill="#FFF" font-family="'ArialMT'" font-size="18">17</text></symbol><symbol id="B" viewBox="-16 -16 32 32"><path fill="#F6F4F4" stroke="#000" stroke-width="2" d="M0 15c8.284 0 15-6.716 15-15S8.284-15 0-15-15-8.284-15 0s6.716 15 15 15z"/></symbol><symbol id="k" viewBox="-15 -15 30 30"><path fill="#AEAEAE" d="M0 15c8.285 0 15-6.716 15-15S8.285-15 0-15c-8.283 0-15 6.716-15 15s6.716 15 15 15z"/><text transform="matrix(1 0 0 -1 -5.006 -5.4)" fill="#FFF" font-family="'ArialMT'" font-size="18">4</text></symbol><symbol id="u" viewBox="-15 -15 30 30"><path fill="#AEAEAE" d="M0 15c8.284 0 15-6.716 15-15S8.284-15 0-15-15-8.284-15 0s6.716 15 15 15z"/><text transform="matrix(1 0 0 -1 -10.01 -5.4)" fill="#FFF" font-family="'ArialMT'" font-size="18">14</text></symbol><symbol id="q" viewBox="-15 -15 30 30"><path fill="#AEAEAE" d="M0 15c8.284 0 15-6.716 15-15S8.284-15 0-15-15-8.284-15 0s6.716 15 15 15z"/><text transform="matrix(1 0 0 -1 -10.01 -5.4)" fill="#FFF" font-family="'ArialMT'" font-size="18">10</text></symbol><symbol id="x" viewBox="-15 -15 30 30"><path fill="#AEAEAE" d="M0 15c8.284 0 15-6.716 15-15S8.284-15 0-15-15-8.284-15 0s6.716 15 15 15z"/><text transform="matrix(1 0 0 -1 -10.01 -5.4)" fill="#FFF" font-family="'ArialMT'" font-size="18">20</text></symbol><symbol id="i" viewBox="-15 -15 30 30"><path fill="#AEAEAE" d="M0 15c8.284 0 15-6.716 15-15S8.284-15 0-15-15-8.284-15 0s6.716 15 15 15z"/><text transform="matrix(1 0 0 -1 -5.006 -5.4)" fill="#FFF" font-family="'ArialMT'" font-size="18">2</text></symbol><symbol id="z" viewBox="-15 -15 30 30"><path fill="#AEAEAE" d="M0 15c8.285 0 15-6.716 15-15S8.285-15 0-15c-8.283 0-15 6.716-15 15s6.717 15 15 15z"/><text transform="matrix(1 0 0 -1 -10.01 -5.4)" fill="#FFF" font-family="'ArialMT'" font-size="18">22</text></symbol><symbol id="s" viewBox="-15 -15 30 30"><path fill="#AEAEAE" d="M0 15c8.284 0 15-6.716 15-15S8.284-15 0-15-15-8.284-15 0s6.716 15 15 15z"/><text transform="matrix(1 0 0 -1 -10.01 -5.4)" fill="#FFF" font-family="'ArialMT'" font-size="18">12</text></symbol></defs><path fill="#F6F4F4" stroke="#000" stroke-width="3" d="M12.021 551.058c44.057 26.005 96.535 34.352 136 34s200.462 37.439 260.721 34.37 250.748-14.378 291.013-12.374 228.378-8.994 264.568-9.965c75.697-2.031 55.123-29.845 61.692-192.486 4.531-112.182 3.384-227.213-25.574-237.081-53.408-18.198-30.527-46.771-37.764-92.464S936.479 1.306 850.021 1.501c-119.716.27-147.262 10.088-184.066 24.895s-91.76 32.208-135.596 24.393c-43.835-7.815-74.338-9.73-115.744 13.295-11.03 6.134-63.329 38.082-86.594 36.975-52.033-2.476-89.923-5.266-149.778 8.026s-81.926 22.519-84.618 71.85 7.269 68.004-13.601 107.336-38.182 48.483-49.483 89.593-46.406 156.734-18.52 173.194z"/><path fill="#F6F4F4" stroke="#000" stroke-width="3" d="M47.769 338.393c42.252-17.335 42.252-17.335 70.252 8.665 0 0-2.621-2.178-1.921 36.826s-15.201 84.01-14.751 99.011M166.441 296.875c37.367-6 56.243-15.001 85.809-12.001M328.021 607.459c5.311-68.256-13.054-112.796 12.693-149.72 33.372-47.858 19.377-147.096 22.315-214.682 1.694-38.98-3.533-140.543-35.008-142M550.689 131.859c1.154-48.004 18.331-77.303-1-79.187M940.627 188.865c10.727-32.474 54.447-25.087 63.097-20.348M798.854 357.606c-33.885 3.508-57.71 11.276-65.352 32.278s-23.739 45.005 3.812 48.005 59.6 3 96.08 0 50.035-30.028 50.759-39.017-7.685-43.542-22.982-41.267-47.467-1.536-62.317.001zM948.218 396.558c-12.703 10.373-24.338 29.33-9.336 35.331s26.639-25.331 26.639-25.331l-17.303-10zM1014.339 450.158c3.928-8.686 5.078-21.562-4.282-20.805s-7.312 20.077-7.312 20.077l11.594.728zM982.291 404.321c-7.238 5.911-13.868 16.714-5.319 20.133 8.549 3.42 15.18-14.435 15.18-14.435l-9.861-5.698z"/><path fill="none" stroke="#E42322" stroke-width="3" stroke-dasharray="20,5" d="M24.534 557.871c3.487-50.813 5.481-153.46 22.484-177.46M63.258 573.107c-1.237-28.813 5.237-130.954 0-158.502s-7.603-52.45-7.42-56.999M148.021 585.058c7.816-52 18.842-109.188 18.421-122.594s-7.544-34.316-6.982-57.861 3.403-73.909 6.982-107.727 11.681-163.117 13.408-175.818M174.724 457.739c11.296-14.682 41.536-54.682 42.416-74.682s3.281-52.364 2.081-86.182"/><path fill="none" stroke="#E42322" stroke-width="3" stroke-dasharray="20,5" d="M190.84 583.058c.18-32 3.293-60 12.737-74s24.655-49.836 28.049-68.918 15.955-57.082 18.674-94.082 11.381-87 9.05-117-7.669-70 0-86 18.7-10 19.185-22M248.302 599.416c4.719-46 19.992-111.546 22.355-136.952s11.15-91.406 11.757-125.406 7.07-112 8.838-132M347.468 607.459c.1-52.401-2.056-72.401-7.956-112.401s-27.969-38.336-29.969-70.168 5.708-61.326 8.593-98.579 8.885-71.253 6.885-105.253-3.357-62-4.679-100M345.048 511.058c18.476-106.455-2.133-156.364 2.419-214.182s.105-69.818 2.329-91.818M420.348 618.822c-2.328-40.401 6.592-53.765-8.868-97.765s-37.313-63.836-47.957-80.918M415.939 482.895c2.082-51.837-2.082-107.331 0-156.584s2.357-107.639 14.219-137.446 22.919-17.807 53.391-35.807 35.962-41.584 38.217-60.792M514.236 613.764c-.216-46.358-11.111-105.343-12.664-156.024s9.745-85.682 20.193-104.682c10.448-19 12.042-40.364 11.148-56.182s-5.403-53.818-11.148-91.818-3.749-47.064-10.567-58M631.23 599.416c.79-56.358 2.093-135.263 2.441-184.811s13.651-49.548 0-75.548-26.771-32.961-24.211-48.48 6.979-13.52 21.77-51.52 20.565-144.771 18.678-186.386M656.987 258.058c18.263-10 58.789-33 79.033-53s37.845-42.421 40.198-73.222S807.49 31.342 808.831 17.058"/><path fill="none" stroke="#E42322" stroke-width="3" stroke-dasharray="20,5" d="M729.008 195.058c-14.845-38-20.853-48-30.868-66s-46.119-66-46.119-66M643.758 358.058c12.527-28.602 6.795-99.918 0-147M765.311 607.459c1.195-28.358 0-54.444 0-86.401 0-48 10.908-70.899 30.71-96s48.961-31.598 60.48-60.799 18.262-29.201 23.891-81.201 29.045-75.729 32.337-104.864-15.952-99.798-20.708-151.798M825.477 599.416c.544-54.358-1.694-108.709-16.646-134.06M776.219 398.685c-4.198-73.627-8.448-78.516 18.677-152.071S863.84 56.191 881.707 26.396M856.501 326.044c-18.48-38.986-32.483-76.202-39.311-98.986M868.222 594.058c-1.72-56 7.799-151.318-11.721-197.5M944.076 594.058c-2.056-60 .068-141.605 25.965-174.455M1002.556 583.058c-2.535-66 11.615-116.336-10.46-158.168s-27.075-102.196-26.575-128.014 11.381-70.889 8.94-129.354"/><path fill="none" stroke="#E42322" stroke-width="3" stroke-dasharray="20,5" d="M517.278 440.14c58.742-15.082 174.775-21.986 202.759-25.534s82.218-14.003 103.983-25.003M925.226 176.572c12.795-13.515 20.79-57.515 29.121-79.515"/><use xlink:href="#e" width="30" height="30" x="-15" y="-15" transform="matrix(1 0 0 -1 710.02 159.058)" overflow="visible"/><use xlink:href="#f" width="30" height="30" x="-15" y="-15" transform="matrix(1 0 0 -1 784.02 103.058)" overflow="visible"/><use xlink:href="#e" width="30" height="30" x="-15" y="-15" transform="matrix(1 0 0 -1 656.02 581.058)" overflow="visible"/><use xlink:href="#f" width="30" height="30" x="-15" y="-15" transform="matrix(1 0 0 -1 680.02 606.058)" overflow="visible"/><use xlink:href="#g" width="30" height="30" x="-15" y="-15" transform="matrix(1 0 0 -1 754.02 601.058)" overflow="visible"/><use xlink:href="#h" width="30" height="30" x="-15" y="-15" transform="matrix(1 0 0 -1 27.02 541.058)" overflow="visible"/><use xlink:href="#i" width="30" height="30" x="-15" y="-15" transform="matrix(1 0 0 -1 68.02 561.058)" overflow="visible"/><use xlink:href="#j" width="30" height="30" x="-15" y="-15" transform="matrix(1 0 0 -1 131.02 604.058)" overflow="visible"/><use xlink:href="#j" width="30" height="30" x="-15" y="-15" transform="matrix(1 0 0 -1 172.443 246.613)" overflow="visible"/><use xlink:href="#k" width="30" height="30" x="-15" y="-15" transform="matrix(1 0 0 -1 162.021 615.058)" overflow="visible"/><use xlink:href="#k" width="30" height="30" x="-15" y="-15" transform="matrix(1 0 0 -1 217.141 385.058)" overflow="visible"/><use xlink:href="#l" width="30" height="30" x="-15" y="-15" transform="matrix(1 0 0 -1 195.02 572.058)" overflow="visible"/><use xlink:href="#l" width="30" height="30" x="-15" y="-15" transform="matrix(1 0 0 -1 252.25 176.572)" overflow="visible"/><use xlink:href="#m" width="30" height="30" x="-15" y="-15" transform="matrix(1 0 0 -1 250.02 584.058)" overflow="visible"/><use xlink:href="#n" width="30" height="30" x="-15" y="-15" transform="matrix(1 0 0 -1 346.02 594.058)" overflow="visible"/><use xlink:href="#n" width="30" height="30" x="-15" y="-15" transform="matrix(1 0 0 -1 312.02 355.058)" overflow="visible"/><use xlink:href="#o" width="30" height="30" x="-15" y="-15" transform="matrix(1 0 0 -1 350.02 301.058)" overflow="visible"/><use xlink:href="#p" width="30" height="30" x="-15" y="-15" transform="matrix(1 0 0 -1 418.02 603.058)" overflow="visible"/><use xlink:href="#p" width="30" height="30" x="-15" y="-15" transform="matrix(1 0 0 -1 364.02 273.058)" overflow="visible"/><use xlink:href="#q" width="30" height="30" x="-15" y="-15" transform="matrix(1 0 0 -1 450.02 615.058)" overflow="visible"/><use xlink:href="#q" width="30" height="30" x="-15" y="-15" transform="matrix(1 0 0 -1 418.02 371.058)" overflow="visible"/><use xlink:href="#q" width="30" height="30" x="-15" y="-15" transform="matrix(1 0 0 -1 460.02 169.058)" overflow="visible"/><use xlink:href="#r" width="30" height="30" x="-15" y="-15" transform="matrix(1 0 0 -1 514.02 599.058)" overflow="visible"/><use xlink:href="#s" width="30" height="30" x="-15" y="-15" transform="matrix(1 0 0 -1 549.69 619.058)" overflow="visible"/><use xlink:href="#s" width="30" height="30" x="-15" y="-15" transform="matrix(1 0 0 -1 534.69 273.058)" overflow="visible"/><use xlink:href="#r" width="30" height="30" x="-15" y="-15" transform="matrix(1 0 0 -1 564.69 432.652)" overflow="visible"/><use xlink:href="#r" width="30" height="30" x="-15" y="-15" transform="matrix(1 0 0 -1 752.18 404.603)" overflow="visible"/><use xlink:href="#r" width="30" height="30" x="-15" y="-15" transform="matrix(1 0 0 -1 943.092 148.058)" overflow="visible"/><use xlink:href="#t" width="30" height="30" x="-15" y="-15" transform="matrix(1 0 0 -1 616.02 606.058)" overflow="visible"/><use xlink:href="#t" width="30" height="30" x="-15" y="-15" transform="matrix(1 0 0 -1 604.682 301.058)" overflow="visible"/><use xlink:href="#t" width="30" height="30" x="-15" y="-15" transform="matrix(1 0 0 -1 649.908 113.058)" overflow="visible"/><use xlink:href="#u" width="30" height="30" x="-15" y="-15" transform="matrix(1 0 0 -1 662.02 287.058)" overflow="visible"/><use xlink:href="#u" width="30" height="30" x="-15" y="-15" transform="matrix(1 0 0 -1 617.02 97.058)" overflow="visible"/><use xlink:href="#u" width="30" height="30" x="-15" y="-15" transform="matrix(1 0 0 -1 647.02 615.058)" overflow="visible"/><use xlink:href="#g" width="30" height="30" x="-15" y="-15" transform="matrix(1 0 0 -1 776.219 306.058)" overflow="visible"/><use xlink:href="#g" width="30" height="30" x="-15" y="-15" transform="matrix(1 0 0 -1 841.709 128.058)" overflow="visible"/><use xlink:href="#v" width="30" height="30" x="-15" y="-15" transform="matrix(1 0 0 -1 784.02 613.058)" overflow="visible"/><use xlink:href="#v" width="30" height="30" x="-15" y="-15" transform="matrix(1 0 0 -1 833.394 389.603)" overflow="visible"/><use xlink:href="#v" width="30" height="30" x="-15" y="-15" transform="matrix(1 0 0 -1 880.392 286.058)" overflow="visible"/><use xlink:href="#w" width="30" height="30" x="-15" y="-15" transform="matrix(1 0 0 -1 908.02 111.058)" overflow="visible"/><use xlink:href="#w" width="30" height="30" x="-15" y="-15" transform="matrix(1 0 0 -1 780.02 579.058)" overflow="visible"/><use xlink:href="#x" width="30" height="30" x="-15" y="-15" transform="matrix(1 0 0 -1 828.02 599.058)" overflow="visible"/><use xlink:href="#x" width="30" height="30" x="-15" y="-15" transform="matrix(1 0 0 -1 794.895 457.74)" overflow="visible"/><use xlink:href="#x" width="30" height="30" x="-15" y="-15" transform="matrix(1 0 0 -1 832.251 276.55)" overflow="visible"/><use xlink:href="#x" width="30" height="30" x="-15" y="-15" transform="matrix(1 0 0 -1 849.415 82.058)" overflow="visible"/><use xlink:href="#y" width="30" height="30" x="-15" y="-15" transform="matrix(1 0 0 -1 876.02 588.058)" overflow="visible"/><use xlink:href="#z" width="30" height="30" x="-15" y="-15" transform="matrix(1 0 0 -1 946.02 585.058)" overflow="visible"/><use xlink:href="#A" width="30" height="30" x="-15" y="-15" transform="matrix(1 0 0 -1 1002.02 571.058)" overflow="visible"/><use xlink:href="#A" width="30" height="30" x="-15" y="-15" transform="matrix(1 0 0 -1 965.52 310.553)" overflow="visible"/><use xlink:href="#B" width="32" height="32" x="-16" y="-16" transform="matrix(1 0 0 -1 974.02 185.058)" overflow="visible"/><use xlink:href="#B" width="32" height="32" x="-16" y="-16" transform="matrix(1 0 0 -1 887.02 25.058)" overflow="visible"/><use xlink:href="#B" width="32" height="32" x="-16" y="-16" transform="matrix(1 0 0 -1 808.02 27.058)" overflow="visible"/><use xlink:href="#B" width="32" height="32" x="-16" y="-16" transform="matrix(1 0 0 -1 652.02 63.058)" overflow="visible"/><use xlink:href="#B" width="32" height="32" x="-16" y="-16" transform="matrix(1 0 0 -1 520.02 97.058)" overflow="visible"/><use xlink:href="#B" width="32" height="32" x="-16" y="-16" transform="matrix(1 0 0 -1 351.02 217.058)" overflow="visible"/><use xlink:href="#B" width="32" height="32" x="-16" y="-16" transform="matrix(1 0 0 -1 320.02 129.058)" overflow="visible"/><use xlink:href="#B" width="32" height="32" x="-16" y="-16" transform="matrix(1 0 0 -1 291.02 211.058)" overflow="visible"/><use xlink:href="#B" width="32" height="32" x="-16" y="-16" transform="matrix(1 0 0 -1 278.02 129.058)" overflow="visible"/><use xlink:href="#B" width="32" height="32" x="-16" y="-16" transform="matrix(1 0 0 -1 219.02 306.058)" overflow="visible"/><use xlink:href="#B" width="32" height="32" x="-16" y="-16" transform="matrix(1 0 0 -1 178.02 132.058)" overflow="visible"/><use xlink:href="#B" width="32" height="32" x="-16" y="-16" transform="matrix(1 0 0 -1 54.02 369.058)" overflow="visible"/><use xlink:href="#B" width="32" height="32" x="-16" y="-16" transform="matrix(1 0 0 -1 896.02 227.058)" overflow="visible"/></svg>