<svg xmlns="http://www.w3.org/2000/svg" xmlns:xlink="http://www.w3.org/1999/xlink" width="1140" height="650" viewBox="-97.088 -13.342 1140 650"><defs><symbol id="g" viewBox="-15 -15 30 30"><path fill="#AEAEAE" d="M0 15c8.284 0 15-6.716 15-15S8.284-15 0-15-15-8.284-15 0s6.716 15 15 15z"/><text transform="matrix(1 0 0 -1 -5.006 -5.4)" fill="#FFF" font-family="'ArialMT'" font-size="18">8</text></symbol><symbol id="b" viewBox="-4.394 -3.638 8.787 7.274"><path fill="none" stroke="#000" stroke-width="1.006" stroke-linecap="round" stroke-linejoin="round" stroke-miterlimit="1" d="M-3.891-3.135l6.266 6.268s2.598-2.398.99-4.007C1.845-2.395-.688.068-.688.068"/></symbol><symbol id="d" viewBox="-3.115 -2.608 6.231 5.214"><use xlink:href="#a" width="5.9" height="4.884" x="-2.95" y="-2.442" transform="scale(-1 1)" overflow="visible"/></symbol><symbol id="a" viewBox="-2.95 -2.442 5.9 4.884"><use xlink:href="#b" width="8.787" height="7.274" x="-4.394" y="-3.638" transform="scale(.6714)" overflow="visible"/></symbol><symbol id="l" viewBox="-15 -15 30 30"><path fill="#AEAEAE" d="M0 15c8.284 0 15-6.716 15-15S8.284-15 0-15-15-8.284-15 0s6.716 15 15 15z"/><text transform="matrix(1 0 0 -1 -5.006 -5.4)" fill="#FFF" font-family="'ArialMT'" font-size="18">3</text></symbol><symbol id="j" viewBox="-15 -15 30 30"><path fill="#AEAEAE" d="M0 15c8.284 0 15-6.716 15-15S8.284-15 0-15-15-8.284-15 0s6.716 15 15 15z"/><text transform="matrix(1 0 0 -1 -5.006 -5.4)" fill="#FFF" font-family="'ArialMT'" font-size="18">1</text></symbol><symbol id="f" viewBox="-15 -15 30 30"><path fill="#AEAEAE" d="M0 15c8.284 0 15-6.716 15-15S8.284-15 0-15-15-8.284-15 0s6.716 15 15 15z"/><text transform="matrix(1 0 0 -1 -5.006 -5.4)" fill="#FFF" font-family="'ArialMT'" font-size="18">5</text></symbol><symbol id="c" viewBox="-3.563 -2.983 7.126 5.964"><use xlink:href="#d" width="6.231" height="5.214" x="-3.115" y="-2.608" transform="scale(1.1437)" overflow="visible"/></symbol><symbol id="i" viewBox="-15 -15 30 30"><path fill="#AEAEAE" d="M0 15c8.284 0 15-6.716 15-15S8.284-15 0-15-15-8.284-15 0s6.716 15 15 15z"/><text transform="matrix(1 0 0 -1 -5.006 -5.4)" fill="#FFF" font-family="'ArialMT'" font-size="18">6</text></symbol><symbol id="h" viewBox="-15 -15 30 30"><path fill="#AEAEAE" d="M0 15c8.284 0 15-6.716 15-15S8.284-15 0-15-15-8.284-15 0s6.716 15 15 15z"/><text transform="matrix(1 0 0 -1 -5.006 -5.4)" fill="#FFF" font-family="'ArialMT'" font-size="18">7</text></symbol><symbol id="m" viewBox="-16 -16 32 32"><path fill="#F5F4F4" stroke="#000" stroke-width="2" d="M0 15c8.284 0 15-6.716 15-15S8.284-15 0-15-15-8.284-15 0s6.716 15 15 15z"/></symbol><symbol id="e" viewBox="-15 -15 30 30"><path fill="#AEAEAE" d="M0 15c8.285 0 15-6.716 15-15S8.285-15 0-15c-8.283 0-15 6.716-15 15s6.716 15 15 15z"/><text transform="matrix(1 0 0 -1 -5.006 -5.4)" fill="#FFF" font-family="'ArialMT'" font-size="18">4</text></symbol><symbol id="k" viewBox="-15 -15 30 30"><path fill="#AEAEAE" d="M0 15c8.284 0 15-6.716 15-15S8.284-15 0-15-15-8.284-15 0s6.716 15 15 15z"/><text transform="matrix(1 0 0 -1 -5.006 -5.4)" fill="#FFF" font-family="'ArialMT'" font-size="18">2</text></symbol></defs><path fill="#F6F4F4" stroke="#000" stroke-width="3" d="M13.237 212.132c15.713-24.096 24.095-35.619 51.325-38.762 27.239-3.144 79.615-8.378 98.473-7.332 18.856 1.047 19.903 5.236 33.519-20.952 13.615-26.189 29.333-49.232 65.996-52.376 36.664-3.142 51.33 9.431 59.707-5.237 8.382-14.667 36.664-73.329 60.758-74.376 24.095-1.047 82.76-3.143 91.137-3.143 8.379 0 62.851-13.619 69.136-6.286 6.289 7.335 41.902 48.188 41.902 59.711 0 11.525 5.241-21.998 15.714-27.236 10.473-5.238 38.76-23.044 86.944-17.807 48.189 5.238 62.856 10.474 81.709 26.186 18.856 15.715 37.709 29.333 52.372 34.57 14.666 5.24 38.76 16.757 47.143 34.57 8.382 17.806 15.714 47.14 17.807 120.465 2.097 73.327 13.619 68.093 8.382 109.99-5.238 41.901-7.331 75.427 0 125.705 7.335 50.283 11.526 92.183-6.285 101.612-17.81 9.429-74.372 16.759-78.564 14.665-4.195-2.098-30.383-5.236-48.189-3.144-17.806 2.094-102.659-5.238-113.13-4.19-10.479 1.046-55.521 4.187-68.094 9.428-12.567 5.238-37.71 3.145-55.516 4.196-17.811 1.042-79.615 11.517-95.328 13.61-15.713 2.098-57.614 9.434-76.471 9.434-18.853 0-87.987 3.136-100.562 3.136-12.568 0-33.523-2.09-39.807-1.044-6.285 1.044-63.898 4.188-90.085 2.094-26.188-2.094-86.946 2.094-97.422-7.329-10.475-9.435-18.856-23.046-21.998-87.998-3.14-64.944-4.19-87.989 4.191-133.035 8.382-45.045 2.093-98.469 1.047-126.752-1.049-28.281 4.189-52.373 4.189-52.373z"/><path fill="#F6F4F4" stroke="#000" stroke-width="3" d="M195.751 618.85c-12.841-139.998-12-269.807-23.999-327.714-5.99-28.905 5.197-113.12 14.999-129.584M580.997 588.195c1.735-105.658-4.735-161.021 0-226.335 4.735-65.314 6.649-242.161 4.192-298.48"/><path fill="none" stroke="#E42322" stroke-width="3" stroke-dasharray="20,5" d="M161.158 610.976c6.281-69.14.565-123.347-18.292-201.911-18.857-78.562 2.357-163.415 2.357-219.982M229.288 609.013c-3.143-84.853 23.832-346.603 26.972-494.306M450.067 589.454c0-97.421 3.133-434.941-9.439-563.786M559.362 584.454c6.285-109.989 1.585-200.496-.102-263.087-3.215-119.316 3.584-139.605-12.124-287.308M754.148 563.454c-1.571-58.14-1.496-219.427-12.497-296.417-10.996-76.994-13.475-158.087-13.475-200.513M844.829 563.454c-1.117-35.196-13.897-231.081-15.391-252.541-1.492-21.461-19.431-211.36-19.431-220.298M346.054 609.013c-.929-44.519-30.205-305.265-8.606-342.876 33.795-58.849 36.077-198.516 36.077-216.9M329.52 276.189c-25.987-13.872-52.705-53.736-67.372-73.129"/><use xlink:href="#e" width="30" height="30" x="-15" y="-15" transform="matrix(1 0 0 -1 367.243 176.552)" overflow="visible"/><use xlink:href="#f" width="30" height="30" x="-15" y="-15" transform="matrix(1 0 0 -1 450.148 582.454)" overflow="visible"/><use xlink:href="#e" width="30" height="30" x="-15" y="-15" transform="matrix(1 0 0 -1 371.243 593.53)" overflow="visible"/><use xlink:href="#g" width="30" height="30" x="-15" y="-15" transform="matrix(1 0 0 -1 844.148 559.454)" overflow="visible"/><use xlink:href="#h" width="30" height="30" x="-15" y="-15" transform="matrix(1 0 0 -1 754.148 563.454)" overflow="visible"/><use xlink:href="#i" width="30" height="30" x="-15" y="-15" transform="matrix(1 0 0 -1 538.148 571.454)" overflow="visible"/><use xlink:href="#j" width="30" height="30" x="-15" y="-15" transform="matrix(1 0 0 -1 166.148 604.454)" overflow="visible"/><use xlink:href="#k" width="30" height="30" x="-15" y="-15" transform="matrix(1 0 0 -1 230.148 600.454)" overflow="visible"/><use xlink:href="#l" width="30" height="30" x="-15" y="-15" transform="matrix(1 0 0 -1 300.148 244.454)" overflow="visible"/><use xlink:href="#l" width="30" height="30" x="-15" y="-15" transform="matrix(1 0 0 -1 322.52 596.454)" overflow="visible"/><use xlink:href="#m" width="32" height="32" x="-16" y="-16" transform="matrix(1 0 0 -1 809.22 103.056)" overflow="visible"/><use xlink:href="#m" width="32" height="32" x="-16" y="-16" transform="matrix(1 0 0 -1 728.176 66.523)" overflow="visible"/><use xlink:href="#m" width="32" height="32" x="-16" y="-16" transform="matrix(1 0 0 -1 445.517 34.06)" overflow="visible"/><use xlink:href="#m" width="32" height="32" x="-16" y="-16" transform="matrix(1 0 0 -1 547.136 42.038)" overflow="visible"/><use xlink:href="#m" width="32" height="32" x="-16" y="-16" transform="matrix(1 0 0 -1 373.524 50.06)" overflow="visible"/><use xlink:href="#m" width="32" height="32" x="-16" y="-16" transform="matrix(1 0 0 -1 256.26 119.056)" overflow="visible"/><use xlink:href="#m" width="32" height="32" x="-16" y="-16" transform="matrix(1 0 0 -1 145.158 187.06)" overflow="visible"/></svg>