<svg xmlns="http://www.w3.org/2000/svg" viewBox="0 0 1024 630"><defs><marker id="a" markerWidth="10" markerHeight="10" refX="5" refY="5"><circle cx="5" cy="5" r="4" fill="#fff" stroke="#000"/></marker><marker id="b" refX="6" refY="12" markerWidth="12" markerHeight="12"><path d="M0 0h12v12H0z"/><text x="6" y="6" class="number">1</text></marker><marker id="c" refX="6" refY="12" markerWidth="12" markerHeight="12"><path d="M0 0h12v12H0z"/><text x="6" y="6" class="number">2</text></marker><marker id="d" refX="6" refY="12" markerWidth="12" markerHeight="12"><path d="M0 0h12v12H0z"/><text x="6" y="6" class="number">3</text></marker><marker id="e" refX="6" refY="12" markerWidth="12" markerHeight="12"><path d="M0 0h12v12H0z"/><text x="6" y="6" class="number">4</text></marker><marker id="f" refX="6" refY="12" markerWidth="12" markerHeight="12"><path d="M0 0h12v12H0z"/><text x="6" y="6" class="number">5</text></marker><marker id="g" refX="6" refY="12" markerWidth="12" markerHeight="12"><path d="M0 0h12v12H0z"/><text x="6" y="6" class="number">6</text></marker><marker id="h" refX="6" refY="12" markerWidth="12" markerHeight="12"><path d="M0 0h12v12H0z"/><text x="6" y="6" class="number">7</text></marker><marker id="i" refX="6" refY="12" markerWidth="12" markerHeight="12"><path d="M0 0h12v12H0z"/><text x="6" y="6" class="number">8</text></marker><marker id="j" refX="6" refY="12" markerWidth="12" markerHeight="12"><path d="M0 0h12v12H0z"/><text x="6" y="6" class="number">9</text></marker><marker id="k" refX="6" refY="12" markerWidth="12" markerHeight="12"><path d="M0 0h12v12H0z"/><text x="6" y="6" class="number">10</text></marker><marker id="l" refX="6" refY="12" markerWidth="12" markerHeight="12"><path d="M0 0h12v12H0z"/><text x="6" y="6" class="number">11</text></marker><marker id="m" refX="6" refY="12" markerWidth="12" markerHeight="12"><path d="M0 0h12v12H0z"/><text x="6" y="6" class="number">12</text></marker><marker id="n" refX="6" refY="12" markerWidth="12" markerHeight="12"><path d="M0 0h12v12H0z"/><text x="6" y="6" class="number">13</text></marker></defs><path stroke-width="3" stroke="#000" fill="#F6F4F4" d="M252.415 386.255c0 16.219 8.522 27.54 41.264 32.132s60.999 1.965 79.98 1.965 76.697-2.628 101.617-3.283 104.892-4.584 121.28-7.177 81.335-11.177 92.521-15.77 24.911-17.698 36.053-21.627 24.92 1.31 28.194-15.08 1.964-58.352 3.274-82.608.664-86.538-8.522-105.546-5.894-35.407-64.901-39.336-68.84-7.867-97.024-5.902-62.246 6.055-77.361 9.867c-5.248 1.31 0-7.867-24.22-5.238s-59.008 5.893-66.875 6.548-37.362 11.15-45.893 15.734-18.353-5.894-30.804-3.274-34.088 12.46-46.548 19.008S264.292 200.11 259.7 217.8s-8.522 49.821-7.867 62.936.583 85.201.583 105.52zM190.914 273.47c7.077 18.075 8.134 42.66 6.78 58.287s-2.031 44.052-2.031 52.863 6.102 37.272 6.102 50.831 6.093 60.282 9.488 82.688-6.78 18.975-13.56 20.33-25.753-.678-30.502-1.355-21.006 4.748-28.462 7.42-15.59-2.032-22.37-.678-33.952 4.118-50.2 3.441-20.338-2.04-35.928-2.717-14.227 0-19.652-6.78-2.03-40.49-2.03-52.862c0-2.031 1.353-16.944 2.707-28.472a84.886 84.886 0 018.134-27.822c3.394-6.78 9.487-11.519 12.881-18.975s7.42-18.984 6.093-28.472 3.395-31.18 5.426-42.02 4.071-25.04 7.419-31.857l22.258-26.58s13.318-20.403 39.953-21.942 71.828.315 77.494 14.671zM788.43 469.533c4.43 11.82 8.77 39.47 21.92 40.2s36.55-5.85 53.36-5.85 35.81-4.38 49.69-12.42 40.93-21.93 54.82-35.81 40.92-22.66 45.31-34.35 3.65-58.47-6.58-62.12-29.23-14.62-34.35-21.93-19.73-19-19.73-49.69 13.15-79.67-5.12-88.44-18.27-5.84-35.08-2.92-35.08 5.12-42.4 6.56-16.08 5.11-24.11 1.46-38-33.62-51.16-11-16.81 62.85-14.62 73.08 2.89 40.99 2.89 51.95 3.66 75.28 4.39 84.78-3.62 54.81.77 66.5z" class="cls-1"/><path stroke="#E42522" stroke-width="2" stroke-dasharray="20,5" fill="none" marker-end="url(#a)" marker-start="url(#b)" class="route-path" d="M20 452l20-27 7-28 7-29 5-50 12-18 21-24"/><path stroke="#E42522" stroke-width="2" stroke-dasharray="20,5" fill="none" marker-end="url(#a)" marker-start="url(#c)" class="route-path" d="M69 540l5-51 5-57 6-59 9-54 19-44"/><path stroke="#E42522" stroke-width="2" stroke-dasharray="20,5" fill="none" marker-end="url(#a)" marker-start="url(#d)" class="route-path" d="M147 534v-53l-1-56-5-56 3-54v-36"/><path stroke="#E42522" stroke-width="2" stroke-dasharray="20,5" fill="none" marker-end="url(#a)" marker-start="url(#e)" class="route-path" d="M194 533l-5-47-6-58-1-54-1-47-2-51"/><path stroke="#E42522" stroke-width="2" stroke-dasharray="20,5" fill="none" marker-end="url(#a)" marker-start="url(#f)" class="route-path" d="M310 417l1-56V232l2-64"/><path stroke="#E42522" stroke-width="2" stroke-dasharray="20,5" fill="none" marker-end="url(#a)" marker-start="url(#g)" class="route-path" d="M393 416l3-66v-74l-3-54-1-43"/><path stroke="#E42522" stroke-width="2" stroke-dasharray="20,5" fill="none" marker-end="url(#a)" marker-start="url(#h)" class="route-path" d="M408 335l33-37 24-38 8-39 3-41"/><path stroke="#E42522" stroke-width="2" stroke-dasharray="20,5" fill="none" marker-start="url(#i)" class="route-path" d="M511 412l-10-81-13-70-6-40"/><path stroke="#E42522" stroke-width="2" stroke-dasharray="20,5" fill="none" marker-start="url(#j)" class="route-path" d="M515 359l15-40-2-42-4-51-13-35-17-21"/><path stroke="#E42522" stroke-width="2" stroke-dasharray="20,5" fill="none" marker-end="url(#a)" marker-start="url(#k)" class="route-path" d="M606 404l-1-81-3-83-8-103"/><path stroke="#E42522" stroke-width="2" stroke-dasharray="20,5" fill="none" marker-end="url(#a)" marker-start="url(#l)" class="route-path" d="M689 388l-10-104-1-56-7-84"/><path stroke="#E42522" stroke-width="2" stroke-dasharray="20,5" fill="none" marker-end="url(#a)" marker-start="url(#m)" class="route-path" d="M834 498l-8-69-1-70-3-61-8-100"/><path stroke="#E42522" stroke-width="2" stroke-dasharray="20,5" fill="none" marker-end="url(#a)" marker-start="url(#n)" class="route-path" d="M981 440l-22-58-23-36-6-42-8-41-7-60"/></svg>