<svg id="tourenlinien" xmlns="http://www.w3.org/2000/svg" viewBox="0 0 771.63 638.51"><defs><style>.cls-1{fill:none;stroke:#e42322;stroke-width:3px;stroke-dasharray:20 5;}</style></defs><title>waldkopfSVG</title><polyline class="cls-1" points="11.64 577.75 1.5 445.52 1.5 323.97 6.57 254.75 11.64 201.82 11.64 161.88"/><polyline class="cls-1" points="70.76 578.77 70.76 491.35 62.32 392.41 70.76 294.15 79.21 135.16"/><polyline class="cls-1" points="154.6 623.51 145.09 535.66 145.09 432.04 145.09 325.96 145.09 206.13 145.09 111.77 145.09 81.3"/><polyline class="cls-1" points="227.87 629.83 227.87 507.4 238.01 442.1 253.21 403.78 259.97 338.47 259.97 278.96 227.87 211.31 227.87 121.77 209.29 8.58"/><polyline class="cls-1" points="374.19 633.11 374.19 531.1 374.19 403.78 364.71 297.51 349.51 194.41 329.24 103.19 266.48 11.39"/><path class="cls-1" d="M636.82,642.56c0-4.54-13.52-152.49-13.52-152.49V350.56l-8.44-111.22L599.65,136.28,592.9,9.53" transform="translate(-169.06 -9.45)"/><polyline class="cls-1" points="540.4 638.51 540.4 519.5 525.2 385.77 511.69 272.12 482.76 170.38 472.77 115.01 467.76 0.08"/><polyline class="cls-1" points="692.45 637.25 692.45 527.22 672.17 430.92 641.1 315.55 611.42 223.13 583.17 162.21 533.92 81.3"/><polyline class="cls-1" points="770.16 635.49 740.16 488.36 721.17 369.81 707.45 267.06 667.11 168.25 613.18 106.57"/></svg>